<svg id="レイヤー_1" data-name="レイヤー 1" xmlns="http://www.w3.org/2000/svg" width="80" height="80" viewBox="0 0 80 80">
  <defs>
    <style>
      .cls-1 {
        fill: #f54634;
      }
    </style>
  </defs>
  <title>mark</title>
  <g>
    <path class="cls-1" d="M51.49,34.9c0.67-1.81-.64-4.25-2.17-5.17l-7.79-4.66c-2-1.19-5.34-1.05-6.56.92C32.87,29.38,23.35,45.88,19,55.26,14.83,64.36,11.82,76,14.92,77.9c3.7,2.21,12.3-6.86,18.5-15C39.84,54.53,50.82,36.71,51.49,34.9ZM22.1,50.35s2.24,1.05,3.4,1.8c0.4,0.26.18,0.92-.66,0.88a15.31,15.31,0,0,1-3.57-1C21.46,51.66,21.87,50.76,22.1,50.35ZM17.5,66.87c-1.1-.44-1.33-0.52-2-0.76,0.08-.36.3-0.89,0.4-1.26,0,0,1.06.71,1.93,1.35A0.39,0.39,0,0,1,17.5,66.87Zm20.57-28.2a51.56,51.56,0,0,0-7.45-3.75c0.23-.45.42-0.92,0.71-1.4A50.55,50.55,0,0,1,38.81,38C39.14,38.35,38.52,38.86,38.07,38.67ZM20.36,76c-0.31-.18-1.18-0.88-1.85-1.44-0.51-.42-0.33-0.95.11-0.77,0.84,0.33,2.73,1.39,2.73,1.39C21.07,75.37,20.58,75.83,20.36,76Zm8.14-8c-0.31-.18-3-1.85-3.7-2.37s0.17-1,.63-0.92c0.69,0.17,4.61,1.56,4.61,1.56C29.49,66.85,29.06,67.33,28.51,67.91Zm8.55-11.24a14.56,14.56,0,0,1-2.27-2.58c-0.43-.71,0-1.27.46-1.09,0.92,0.38,3.2,1.64,3.2,1.64C38,55.33,37.56,55.94,37.06,56.67Zm6.72-17.55c0.22-.68.94-1,1-0.17,0.35,2.77-4.34,10.64-7.39,12.66-0.69.45-1.18-.12-0.67-0.61C39.55,48.34,42.8,42.15,43.78,39.11Zm4.84-.77c-0.31-.18-4-2.15-4.71-2.57a0.64,0.64,0,0,1,.3-1.2c0.69,0.17,5.65,1.73,5.65,1.73C49.48,37,48.91,37.93,48.63,38.34Z"/>
    <path class="cls-1" d="M47.34,26.89l-3.6-2.15c4.46-7.95,5.42-14.33,5.19-19.59,0.13-1.95,3.31-2,3.3.73,0.11,4.58-5.16,14.7-4.9,15,1.13-.15,6.89-10.66,8.79-18.08,0.44-1.6,3.56-1.35,3.15,1.41-2.45,7.56-11.63,18.77-11.29,19C48.72,23.63,59.69,11.78,62.7,4.4c1.62-2.19,5.12-.67,3,2.82-4.23,7.17-16,17-15.76,17.34,1.18,0.19,9.89-5.7,13.36-11,1.26-1.42,3.12-.1,2.16,1.5C60.42,21.69,50.5,26.05,47.34,26.89Z"/>
  </g>
</svg>
