<svg id="レイヤー_1" data-name="レイヤー 1" xmlns="http://www.w3.org/2000/svg" width="568" height="600" viewBox="0 0 568 600">
  <defs>
    <style>
      .cls-1 {
        fill: #5a4a42;
      }
    </style>
  </defs>
  <title>mark</title>
  <g>
    <path class="cls-1" d="M162.58,294.49a33.62,33.62,0,0,0,8.28-1.16,25.84,25.84,0,0,0,12.64-7l0,0a18.31,18.31,0,0,0,4.57-12.2,17.42,17.42,0,0,0-.5-4.25,18.7,18.7,0,0,0-5.24-9.33c-2.83-2.75-6.9-5.2-13-7.8l-2.64-1.17h0c-4.74-2-7.82-3.55-9.77-5.07a8.47,8.47,0,0,1-3.34-5,9.36,9.36,0,0,1-.31-2.35c0-4,2.78-7,7.34-8.23a19.18,19.18,0,0,1,4.79-.66c4.13,0,5.7,1.71,6.16,2.16h0a12.44,12.44,0,0,1,2.09,3.9v0l0.46,0.89a1.57,1.57,0,0,0,1.25.65l0.42,0h0l0.93-.72,0.23-1a7.35,7.35,0,0,0-.28-1.71c-0.7-2.77-1.17-5-1.47-6.61s-0.43-2.48-.51-2.83l-0.5-.84-1-.35-0.72.1a15,15,0,0,1-3.19.32,35.42,35.42,0,0,0-8.2,1.24c-9.48,2.37-15.33,8.73-15.32,16.48a16.89,16.89,0,0,0,.53,4.11c1.48,6,5.11,11,16.36,16h0l4.61,2h0c4.19,1.93,7.06,3.56,9,5.29a11.47,11.47,0,0,1,3.65,6.16,8.86,8.86,0,0,1,.27,2.16c0,3.93-2.45,8.29-8.77,9.92a17.19,17.19,0,0,1-4.19.55c-3.95,0-7.44-1.5-9.37-5.49l0,0a11.52,11.52,0,0,1-.93-2.59l-0.48-1-1.2-.56-0.46.06h0l-1,.8-0.23,1.06,0.07,0.79v0c0.24,1.36.79,4.76,1.93,9.23a9.05,9.05,0,0,0,.87,2.55,2.81,2.81,0,0,0,2,1.16l0.19-1-0.17,1A24.05,24.05,0,0,0,162.58,294.49Z"/>
    <path class="cls-1" d="M237.09,274a32.52,32.52,0,0,1-5.79,1.14,46.3,46.3,0,0,1-6,.54,6.33,6.33,0,0,1-3.86-.9c-0.51-.3-1.36-1.9-2-4.83s-1.4-7.16-2.18-12.8l-2.08-15c-1.8-13-2.2-15.16-2.36-17.76l0-1.1a3.81,3.81,0,0,1,.43-2.09,2.84,2.84,0,0,1,1.74-1.08c1-.23,1.9-0.46,2.5-0.54l1.19-.48a1.66,1.66,0,0,0,.68-1.3l0-.2-0.66-1.09-1.24-.34-0.62,0c-2.79.4-8.78,1.53-10.1,1.71-0.09,0-6.13.55-10.28,1.12l-1.39.4a1.62,1.62,0,0,0-.87,1.4l0,0.23h0v0h0l0.71,1.1L196,222.5l0.42,0a21.19,21.19,0,0,1,2.24-.24h0.3c1.46,0,2,.34,2.43.82a6.53,6.53,0,0,1,1,2.76c0.55,2.57.85,4.72,2.65,17.73l2.05,14.77c1,7.35,2.11,14,2.11,17.67v0.68a8.58,8.58,0,0,1-.31,2.66,1.43,1.43,0,0,1-.9,1l-0.07,0a8.72,8.72,0,0,1-2.09.46l-1.26.47-0.62,1.21,0,0.2,0.81,1.22,1.22,0.28,0.79-.06c3.52-.49,5.45-1.06,8.62-1.5,9.81-1.36,17.25-1.89,24-2.82,2.4-.35,3.62-0.57,4.57-1.27l0.91-1.36,0.26-1.41v0a37.61,37.61,0,0,0,.15-3.77c0-2.37-.1-4.76-0.2-5.51l-0.39-1.32-1.29-.77-0.23,0h0l-1.25.9-0.22,1.26h0v0.14h0a11.89,11.89,0,0,1-1.07,4.65A6,6,0,0,1,237.09,274Z"/>
    <path class="cls-1" d="M289.62,210.65c-12.28,0-21.2,5-27,11.66A35.24,35.24,0,0,0,254,244.06h0v0.6a35.29,35.29,0,0,0,8.1,22.72c5.61,6.59,14.38,11.29,26.64,11.48h0.73c21.3,0,35.76-15.63,36-34.9v-0.68c0-10-3.8-18.18-10.12-23.78s-15.11-8.68-25-8.84h-0.76Zm24.5,35.61c-0.21,12.2-4.24,18.88-8.94,22.65a22.1,22.1,0,0,1-13.53,4.58h-0.33c-8-.14-14.39-3.25-18.9-8.61s-7.09-13-7.09-22.36v-0.84c0.15-9.07,2.89-15.51,7.15-19.7s10.1-6.22,16.68-6.22h0.53c12.85,0.24,24.38,10.67,24.43,29.72v0.78Z"/>
    <path class="cls-1" d="M422.31,241.67c1.23-2.07,2.28-4.05,3.34-5.44s2-2.11,3.08-2.15a18.36,18.36,0,0,1,2.38.18h0l0.67,0.07L433,234l0.77-1.1v-0.26a1.57,1.57,0,0,0-.66-1.23l-1.22-.51c-2.67-.52-7.57-1.17-8.05-1.28s-4.5-1.19-8.13-1.91l-1.07-.13-1,.24-0.65.93h0v0h0l0,0.31a2.11,2.11,0,0,0,1.95,1.91,8.28,8.28,0,0,1,3,1l0.4,0.72-0.06.52c-0.2,1-.31,1.26-1.51,3.69-4.07,8.2-15.11,27.83-20.11,37.14l-7.73-46.27a35.48,35.48,0,0,0-.72-3.7l-0.48-1.13-1.06-.74h0l-0.32,0a2.36,2.36,0,0,0-1.75,1,25.94,25.94,0,0,0-2.15,3.16h0l-25.5,39.81c-0.87-9.19-2.95-33.37-3.15-38.13-0.11-2.79-.26-5.08-0.26-6.48a6.91,6.91,0,0,1,.07-1.12l0.28-.91,0.23-.14h0l0.66,0a11.87,11.87,0,0,1,2.17.27l0.82,0.09,1.12-.28,0.77-1.11v-0.09l0-.23L359,216.88a3.26,3.26,0,0,0-1.45-.6c-4.6-.91-9-1.48-9.61-1.59-0.88-.17-5.39-1.36-10.47-2.37l-1-.12-1,.22-0.72,1h0v0h0l0,0.33a1.76,1.76,0,0,0,.77,1.42l1.09,0.45a16.46,16.46,0,0,1,3.17,1,3.81,3.81,0,0,1,2,2,18,18,0,0,1,.9,4.67h0l5.53,51c0.37,3.27.61,5.25,0.91,6.54a4.7,4.7,0,0,0,.59,1.57l1.26,0.86h0l0.34,0a3.06,3.06,0,0,0,2.22-1.32,30.8,30.8,0,0,0,2.46-3.55c4-6.25,19.15-29.57,25.19-38.76l7.57,45.22h0a30.46,30.46,0,0,0,.8,4.27l0.62,1.32,1.23,0.77h0.07l0.26,0,1.32-.56c1-.93,2.24-2.82,5-7.34C402.62,275.85,416.45,251.43,422.31,241.67Z"/>
    <path class="cls-1" d="M166.07,390.57a3.91,3.91,0,0,1,.45,1.58l0,0.18-0.13.16-0.56,1.13-0.06.77,0.75,0.85,0.91,0.17a13.25,13.25,0,0,0,2.64-.43h0c3.13-.82,13.39-3.81,15.15-4.39l1.26-.65,0.63-1.3-0.09-.55-0.85-.69-1.42-.16-0.36,0a32.84,32.84,0,0,1-4.87.91l-0.32,0c-1.38,0-2.61-.92-3.67-2.28a21.92,21.92,0,0,1-2.32-4h0L151,334.75h0a8.34,8.34,0,0,0-.88-1.71,2,2,0,0,0-1.59-.95l-0.5.08a2,2,0,0,0-1.22,1.25,6.6,6.6,0,0,0-.33,1.64h0l-7.57,54.85L98.85,350.75h0l-1.14-1-1.2-.41-0.59.1-1,.93-0.19,1.16a9.22,9.22,0,0,0,.21,1.78l10.86,53.89a18.82,18.82,0,0,1,.42,3.46,4.36,4.36,0,0,1-.34,1.9l-1,.93a14.8,14.8,0,0,1-1.68.66l-1.22.71L101.48,416l0.07,0.38h0v0h0l0.64,0.88,1,0.29,1.29-.26c2.41-.8,6.32-2.41,7.18-2.7,0.65-.22,4.87-1.3,7.92-2.31l1.27-.56a1.7,1.7,0,0,0,.82-1.42l-0.1-.59a1.61,1.61,0,0,0-1.61-1l-0.68.07h0c-1,.23-1.63.43-2.63,0.58h0l-0.38,0a1.82,1.82,0,0,1-1.83-1.38c-0.47-1.42-.74-2.23-1.08-3.53l-7.72-33.84c1.75,1.8,4.07,4.14,6.47,6.56,4.13,4.15,8.19,8.2,8.66,8.66l0.1,0.09c0.08,0.05,1.1,1,2.4,2.31,4,3.93,11.5,11.41,13.35,13.12,1.29,1.18,2.15,2,2.8,2.5a3.17,3.17,0,0,0,1.89.92l0.49-.08,1-.79c0.64-1.11.61-2.32,1.08-5.54L150,354.74l16.1,35.79Z"/>
    <path class="cls-1" d="M241.64,351.34l-1.27-8.76c-1.87-12.89-2.2-15.14-2.48-17.78h0c0-.53-0.07-1-0.06-1.44a3.63,3.63,0,0,1,.37-1.93,2.36,2.36,0,0,1,1.57-.95,13.4,13.4,0,0,1,1.65-.33,1.88,1.88,0,0,0,1.76-1.75v-0.22h0l-0.7-1.11-1.16-.3-0.77.07c-2.79.41-7.06,1.33-7.44,1.38s-5.34.47-9.58,1.09l-1.34.43a1.67,1.67,0,0,0-.8,1.42l0,0.28h0a1.73,1.73,0,0,0,1.83,1.32l0.37,0a22.67,22.67,0,0,1,2.66-.2c1.48,0,2,.32,2.37.74a6.63,6.63,0,0,1,1,2.75c0.57,2.57.9,4.82,2.78,17.71l1.51,10.43a68.64,68.64,0,0,1,.82,9.67c0,4.38-.71,8.11-2.5,10.89-2.95,4.6-7,6.48-11.94,7.21a24.71,24.71,0,0,1-3.5.27,16.78,16.78,0,0,1-9.44-2.75c-3.9-2.6-6.77-7-8.52-18.89l-1.7-11.71c-1.88-12.94-2.22-15.22-2.5-17.85h0l-0.07-1.41a3.73,3.73,0,0,1,.33-1.85,1.84,1.84,0,0,1,1.25-.83,19.81,19.81,0,0,1,2-.49l0.49-.21,1.08-.86,0.37-.94-0.62-1.09-1.19-.33-0.82.07c-2.69.4-8.49,1.54-9.2,1.64s-6,.58-10.28,1.19a3.76,3.76,0,0,0-1.44.43l-0.81,1.42,0,0.3h0l0.75,1,1.11,0.27,0.44,0a19.17,19.17,0,0,1,2.32-.17h0.27a2.67,2.67,0,0,1,2.26.77,5.65,5.65,0,0,1,.93,2.6l0,0.08c0.66,2.51,1,4.76,2.87,17.75l1.77,12.19c1.77,12.34,5.85,18.19,10.91,21.66a24.65,24.65,0,0,0,14,3.88,40.48,40.48,0,0,0,6-.48c5.36-.77,11.95-2.27,17.76-8.85,4.16-4.79,5.35-11.1,5.35-17.3A70.65,70.65,0,0,0,241.64,351.34Z"/>
    <path class="cls-1" d="M288.71,349.73h0c2.22,0.25,3.13,1,3.66,1.84a5.44,5.44,0,0,1,.69,2.51v0l0.23,1.29,0.52,0.75,1,0.33h0a1.59,1.59,0,0,0,1.41-.94l0.25-1.46v-0.61c0-1.26.08-2.82,0.3-5.18,0.24-3,.59-4.46.61-5.28l-0.09-.43-0.41-.88-1.57-.36-1,.81-0.15.15a3,3,0,0,1-1.74,1.19,19.94,19.94,0,0,1-4.13.42c-3.17.15-7.78,0.23-11.77,0.3l-0.37-22.32c1.91,0,3.73,0,5.53,0,2.26,0,4.5,0,6.85,0h0c2.49,0.05,4,.19,4.9,1s1.39,3.33,1.36,4.22v0.14l0.39,1.22a1.67,1.67,0,0,0,1.42.82h0a1.59,1.59,0,0,0,1.36-.86,3.39,3.39,0,0,0,.31-1.57v0c0.16-2.66,0-4.4.37-6.89v-0.05a19.64,19.64,0,0,1,.52-2.91h0l0.11-.68-0.36-1-1-.47-0.31,0-1,.32-0.08,0a14.23,14.23,0,0,1-4.13.69c-2,.13-20.14.43-21.61,0.46h-0.95c-2.56,0-5.17-.15-8-0.15h-1.21a3.64,3.64,0,0,0-1.52.27,1.6,1.6,0,0,0-.95,1.46v0a1.63,1.63,0,0,0,.85,1.36l1.36,0.4c1,0.09,1.67.08,2.5,0.17h0c1.4,0.12,1.9.46,2.24,0.93a5.81,5.81,0,0,1,.68,2.76c0.24,2.62.28,5,.5,18l0.25,14.9q0.08,5,.08,8.94c0,3.55-.06,6.38-0.2,8.47v0a11.87,11.87,0,0,1-.46,3.62,1.41,1.41,0,0,1-1.36.93h0c-0.49.09-1,.1-2,0.23h0l-1.3.52-0.55,1.2a1.59,1.59,0,0,0,.91,1.43l1.41,0.26h0.11c2.13,0,6.2-.3,8.1-0.43h0.64c0.44,0,4.22.13,8.37,0.13l2.67,0a2.9,2.9,0,0,0,1.54-.38l0.74-1.35v0a1.53,1.53,0,0,0-.84-1.32l-1.27-.34h0c-0.9-.08-1.77-0.16-3-0.34a6,6,0,0,1-1.48-.32,1.41,1.41,0,0,1-.87-1,13.91,13.91,0,0,1-.45-3.7c-0.17-4-.37-9.92-0.47-16.57l-0.12-6.84c1.1,0,3.83-.06,6.52-0.06C285.58,349.58,288,349.62,288.71,349.73Z"/>
    <path class="cls-1" d="M342.43,353.23a4.72,4.72,0,0,1,3.27,2,4.48,4.48,0,0,1,.56,2.37v0.53l0.08,1.3,0.43,0.81,0.95,0.44h0.17a1.61,1.61,0,0,0,1.42-.9,3.83,3.83,0,0,0,.36-1.44,52.24,52.24,0,0,1,.95-5.59c0.29-1.45.57-2.57,0.79-3.4a16.93,16.93,0,0,0,.43-1.79l0-.42-0.31-.93-1.52-.53-1.06.69-0.17.14c-0.89.84-1.34,1-3.19,1.07-0.74,0-1.66-.05-2.83-0.14-3.17-.22-7.75-0.66-11.74-1.06l2.19-22.22c4.29,0.42,8.1.9,12.3,1.41h0c2.46,0.33,3.92.64,4.74,1.58a6.92,6.92,0,0,1,.89,3.73l0,0.62v0.14l0.25,1.26a1.64,1.64,0,0,0,1.33,1h0.15a1.6,1.6,0,0,0,1.36-.81,3.56,3.56,0,0,0,.41-1.45h0v-0.07h0c0.45-2.58.53-4.32,1.15-6.72v-0.05a20.24,20.24,0,0,1,.84-2.83h0l0.2-.87-0.33-1-0.92-.48-0.3,0-1,.2-0.08,0a9.83,9.83,0,0,1-2.6.25c-0.48,0-1,0-1.59,0-2-.1-20.06-1.87-21.52-2-3.2-.31-6.45-0.93-10.06-1.29l-0.62,0-1.23.26-0.75,1.13h0v0.09h0v0.14a1.66,1.66,0,0,0,.75,1.34l1.25,0.53h0c0.94,0.2,1.64.27,2.46,0.44a2.88,2.88,0,0,1,2.06,1.07,4.32,4.32,0,0,1,.44,2.35v0.59c-0.07,2.62-.3,5-1.57,17.95l-1.46,14.84c-0.78,7.91-1.45,13.72-2.1,17.29v0a11.8,11.8,0,0,1-.88,3.55,1.42,1.42,0,0,1-1.46.77h0l-0.48,0c-0.37,0-.84,0-1.55,0h0l-1.36.37-0.62,1h0v0.1h0v0.17a1.62,1.62,0,0,0,.87,1.41l1.37,0.36c2.12,0.21,6.13.41,8,.5h0l0.69,0.07c0.3,0,5.79.87,11,1.38l0.46,0,1.31-.34,0.69-1.16v-0.16a1.56,1.56,0,0,0-.74-1.3l-1.17-.44c-0.89-.2-1.75-0.37-3-0.69a3.36,3.36,0,0,1-1.85-.82,3.78,3.78,0,0,1-.46-2.34c0-.59,0-1.31.11-2.16,0.29-4,.78-9.9,1.43-16.52l0.67-6.8c1,0.1,3.33.33,5.75,0.6,2.64,0.29,5.4.65,6.22,0.87h0Z"/>
    <path class="cls-1" d="M391.71,330.52l1.13-.24,0.76-1.07v0l0-.27a1.63,1.63,0,0,0-.82-1.38l-1.35-.46c-2.76-.53-8.53-1.35-8.84-1.41s-5.77-1.42-8.82-2l-1-.12-1.1.29-0.61.95h0v0.09h0l0,0.29a1.58,1.58,0,0,0,.63,1.23l1,0.51h0c0.68,0.25,1.29.36,2.13,0.71a2,2,0,0,1,1.12.87,3.27,3.27,0,0,1,.32,1.65,14.07,14.07,0,0,1-.09,1.46c-0.31,2.6-.76,4.93-3.26,17.82L370,364c-1.42,7.3-2.78,14.25-3.9,17.53h0a13.49,13.49,0,0,1-1.1,2.73,1.35,1.35,0,0,1-1.13.81h-0.36a11.24,11.24,0,0,1-1.8-.15L361,384.9l-1.13.28-0.67,1h0v0.06h0l0,0.28a1.68,1.68,0,0,0,.92,1.43l1.35,0.46c2.76,0.54,8.64,1.38,8.83,1.42,0.4,0.08,6.08,1.48,11.07,2.45l0.83,0.09,1.14-.28,0.72-1V391l0-.3-0.58-1.19-1.09-.52-0.11,0a21.89,21.89,0,0,1-3.41-1,3.18,3.18,0,0,1-1.55-1.13,3.34,3.34,0,0,1-.33-1.81l0-1.22c0.18-3.45,1.6-10.28,3.05-17.79l2.84-14.64c2.5-12.89,2.84-15.16,3.53-17.67a7.69,7.69,0,0,1,1-2.66,2,2,0,0,1,1.8-.65h0.36c0.63,0,1.12.12,1.81,0.15h0.35Z"/>
    <path class="cls-1" d="M474.78,356.86a1.6,1.6,0,0,1,1.49-.78l0.59,0h0c1,0.15,1.68.38,2.4,0.5h0l0.43,0a1.8,1.8,0,0,0,1.77-1.18v0l0.09-.53a1.49,1.49,0,0,0-.74-1.25l-1.13-.49c-3.7-1.23-6.81-2-7.63-2.23s-4.69-1.89-8.77-3.25a5.21,5.21,0,0,0-1.66-.36l-0.81.18-0.67.79h0v0h0l-0.1.59,0.47,1.16,1.14,0.66a24.52,24.52,0,0,1,3.34,1.51,2.5,2.5,0,0,1,1.36,2.41,18.27,18.27,0,0,1-1.09,4.94l-11.36,37.19c-2.48-4.89-7.49-15.24-11.67-23.34-8.68-17.88-17.32-35.69-17.82-36.84l0-.05c-0.2-.39-0.56-1.23-1-2l-0.65-1.11a2.24,2.24,0,0,0-1-.9l-0.56-.1-1.13.43c-0.83.75-1.23,1.83-1.92,3.83l1,0.32-1-.32c-5.14,15.67-.37,1.12-15.42,46.09a36.88,36.88,0,0,1-2.85,7c-0.85,1.32-1.34,1.55-2.06,1.57h0a9,9,0,0,1-2.76-.55l-1.18-.22a1.65,1.65,0,0,0-1.61,1.05h0v0h0l-0.1.53a1.66,1.66,0,0,0,.79,1.37L394,394c4.07,1.36,7.75,2.27,8.29,2.46s3.95,1.64,9.05,3.34l1.41,0.28a1.62,1.62,0,0,0,1.6-1.07v0l0.07-.47-0.54-1.2-1.09-.62a16.44,16.44,0,0,1-3.51-1.57c-0.75-.52-1-0.93-1.06-2.28a28.46,28.46,0,0,1,1.56-7.13L420.18,351l12.94,27.27v0c2.76,5.37,6.32,12.41,9.24,18.14,1.46,2.87,2.75,5.41,3.71,7.26,0.47,0.92.87,1.67,1.15,2.21l0.35,0.63,0.12,0.21,0,0c1.59,2.94,2.56,4.66,3.26,5.73a3.92,3.92,0,0,0,1.86,1.82h0l0.55,0.09,1.13-.5c0.72-.82,1.1-2,2.18-5.13l16-47.25A18.45,18.45,0,0,1,474.78,356.86Z"/>
    <path class="cls-1" d="M181.35,458.61a10.65,10.65,0,0,0-3.48-13.34,8.82,8.82,0,0,0-11.65,3,10.64,10.64,0,0,0,3.48,13.34A8.93,8.93,0,0,0,181.35,458.61Zm-9.31,1.1a11.48,11.48,0,0,1-2.66-5,11.2,11.2,0,0,1-.5-5.53,3.81,3.81,0,0,1,2.7-3.12,3.94,3.94,0,0,1,4,1.1,14.28,14.28,0,0,1,3.14,10.53,3.74,3.74,0,0,1-2.7,3.08A3.85,3.85,0,0,1,172,459.72Z"/>
    <path class="cls-1" d="M193.24,463.67l-0.91-.08-3.09-1.86-0.71.15,0.83,4a11.29,11.29,0,0,0,3.61-.1c2.59-.55,4.13-3,4.57-7.09l1.71-15.41c0.36-2.51,1-3.93,1.93-4.19L201,438.3l-5.4,1.13,0.16,0.74c0.9,0.08,1.33,1,1.25,2.63l-0.87,10.41-5.9-9.18c-0.64-1.22-.54-2.2.23-2.75l-0.15-.74-7,1.47,0.15,0.74c0.78-.17,1.87.65,3.06,2.44l9,12.86C195.26,461.51,194.42,463.42,193.24,463.67Z"/>
    <path class="cls-1" d="M221.57,434.89l-4.29.69-0.78,1.12a6.13,6.13,0,0,0-4.12-.87,7.07,7.07,0,0,0-5.31,3.85,11.4,11.4,0,0,0-1,7.32,10.61,10.61,0,0,0,2.23,5.27,5.85,5.85,0,0,0,5.62,2.08,10.62,10.62,0,0,0,2.16-.58l2.81-2.33a3,3,0,0,0,1.07,1.44l4.4-.72-0.12-.74a3.58,3.58,0,0,1-1.89-1.73,10.45,10.45,0,0,1-.49-2.06l-1.12-6.94c-0.39-2.42-.05-4.12.94-5ZM217,451.4a6,6,0,0,1-5.24-1.19,7.58,7.58,0,0,1-2.21-4.66,8.34,8.34,0,0,1,.69-5.44,4.84,4.84,0,0,1,6.45-2.22l2.11,13Z"/>
    <path class="cls-1" d="M234.39,449.91a3.78,3.78,0,0,1-2-.53l-3.18-2.18-0.71.08,0.42,3.64c0.9,0.2,1.71.33,2.21,0.43a14.83,14.83,0,0,0,3.7.07,7.5,7.5,0,0,0,4.92-2.16,5.23,5.23,0,0,0,1.06-4,5,5,0,0,0-3.12-4.28c-0.8-.37-1.72-0.72-2.83-1.12a26.56,26.56,0,0,1-2.94-1.37,2.42,2.42,0,0,1-1.27-1.76,1.8,1.8,0,0,1,.55-1.51,3,3,0,0,1,1.64-.65,3.86,3.86,0,0,1,2.11.52l3.14,2.18,0.75-.08-0.42-3.64A25.77,25.77,0,0,0,235,433a12.45,12.45,0,0,0-2.57.07,5.66,5.66,0,0,0-3.78,1.88,4.22,4.22,0,0,0-1,3.46,4.7,4.7,0,0,0,1.1,2.65,12.38,12.38,0,0,0,3.22,1.87,40.37,40.37,0,0,1,3.81,1.76,3.28,3.28,0,0,1,1.78,2.27,2.39,2.39,0,0,1-.58,1.86A4.19,4.19,0,0,1,234.39,449.91Z"/>
    <path class="cls-1" d="M262.79,448.53l-0.05-.75a3.57,3.57,0,0,1-1.73-1.89,10.94,10.94,0,0,1-.3-2.11l-0.49-7c-0.17-2.46.32-4.12,1.39-4.95l-0.05-.76-4.33.31-0.87,1a6.14,6.14,0,0,0-4-1.23,7.11,7.11,0,0,0-5.64,3.35,11.41,11.41,0,0,0-1.65,7.2,10.64,10.64,0,0,0,1.75,5.45,5.86,5.86,0,0,0,5.41,2.57,10.79,10.79,0,0,0,2.21-.38l3-2.07,0.94,1.53Zm-7.26-1.42a6,6,0,0,1-5.11-1.65,7.58,7.58,0,0,1-1.78-4.84,8.38,8.38,0,0,1,1.17-5.35,4.81,4.81,0,0,1,3.93-2.32,4.73,4.73,0,0,1,2.7.68l0.93,13.15Z"/>
    <path class="cls-1" d="M267.51,432.45a4,4,0,0,1,1.37,1.47,9.06,9.06,0,0,1,.5,3l0.2,6.49a8.41,8.41,0,0,1-.23,2.62,3.75,3.75,0,0,1-1.39,1.55l0,0.75,7-.21,0-.75a3.89,3.89,0,0,1-1.51-1.47,10.06,10.06,0,0,1-.34-2.59l-0.39-13.14-5.24,1.52Z"/>
    <path class="cls-1" d="M272.38,426a2.36,2.36,0,0,0,.59-1.65,2.39,2.39,0,0,0-.69-1.6,2.22,2.22,0,0,0-1.64-.59,2.17,2.17,0,0,0-1.6.69,2.28,2.28,0,0,0-.63,1.65,2.23,2.23,0,0,0,.73,1.6,2.21,2.21,0,0,0,1.64.63A2.27,2.27,0,0,0,272.38,426Z"/>
    <path class="cls-1" d="M310.51,446.55A4.07,4.07,0,0,1,309,448l0,0.75,7,0.29,0-.76a4,4,0,0,1-1.37-1.57,8.41,8.41,0,0,1-.15-2.62l0.28-6.91a7.83,7.83,0,0,0-.95-4.54,4.41,4.41,0,0,0-3.74-1.89,8.53,8.53,0,0,0-2.43.27l-3.43,2.51a4.28,4.28,0,0,0-3.95-3.19,8.63,8.63,0,0,0-2.62.27l-3.39,2.43,0.12-2.95L289,431.25l0,0.72a4,4,0,0,1,1.26,1.57,9.18,9.18,0,0,1,.28,3.07l-0.27,6.49a8.41,8.41,0,0,1-.41,2.59,3.8,3.8,0,0,1-1.49,1.45l0,0.75,7,0.29,0-.75a3.9,3.9,0,0,1-1.41-1.57,10.13,10.13,0,0,1-.16-2.62l0.39-9.36a5.07,5.07,0,0,1,3.45-1.19,3,3,0,0,1,2.88,1.6,10.91,10.91,0,0,1,.27,3.64l-0.23,5.59a10.27,10.27,0,0,1-.37,2.59,3.88,3.88,0,0,1-1.54,1.45l0,0.76,7,0.29,0-.75a3.77,3.77,0,0,1-1.38-1.57,8.51,8.51,0,0,1-.19-2.62l0.28-6.76a17.29,17.29,0,0,0,0-2.65,5.55,5.55,0,0,1,3.49-1.14c1.7,0.07,2.73.72,3.1,1.95a10.88,10.88,0,0,1,.21,3.07L310.92,444A8.22,8.22,0,0,1,310.51,446.55Z"/>
    <path class="cls-1" d="M337,433.11l-5.4.82-0.07.71a3.67,3.67,0,0,1,1.16,1.64,9,9,0,0,1,.11,3.08l-0.87,8.49a7.3,7.3,0,0,1-2.71.52c-1.92-.2-3.11-0.77-3.62-1.74a7.21,7.21,0,0,1-.3-3.75L326.4,432l-5.4.82-0.07.72a4,4,0,0,1,1.16,1.64,9,9,0,0,1,.1,3.08l-0.57,5.63a7.5,7.5,0,0,0,.63,4.66c0.75,1.18,2.35,1.87,4.68,2.11a7.86,7.86,0,0,0,1.9,0l3-1.86a4.13,4.13,0,0,0,.6,2l4.43,0.45,0.08-.75a3.41,3.41,0,0,1-1.38-2.15,10.7,10.7,0,0,1,.07-2.12Z"/>
    <path class="cls-1" d="M353.78,428.9a3.12,3.12,0,0,1,1.73,1L358,432.8l0.75,0.11,0.54-3.62c-1.39-.66-2.31-1.14-2.64-1.26a10.46,10.46,0,0,0-2.79-.72,5.84,5.84,0,0,0-4.5,1,7.28,7.28,0,0,0-2.37,4.35l-0.34,2.28-2.95-.43-0.26,1.76,2.95,0.43-1.59,10.72a8.31,8.31,0,0,1-.68,2.53,3.52,3.52,0,0,1-1.64,1.28l-0.11.75,6.94,1,0.11-.75a3.72,3.72,0,0,1-1.2-1.7,8.24,8.24,0,0,1,.08-2.62l1.59-10.72,4.56,0.68,0.26-1.76-4.56-.68,0.4-2.73C351,429.94,352.1,428.65,353.78,428.9Z"/>
    <path class="cls-1" d="M370.58,431.8a3.09,3.09,0,0,1,1.69,1l2.35,3,0.75,0.14,0.67-3.6c-1.36-.72-2.27-1.23-2.59-1.37a10.67,10.67,0,0,0-2.77-.82,5.85,5.85,0,0,0-4.54.84,7.22,7.22,0,0,0-2.53,4.26l-0.42,2.27-2.94-.55-0.33,1.74,2.94,0.55-2,10.66a8.5,8.5,0,0,1-.77,2.51,3.54,3.54,0,0,1-1.69,1.22l-0.14.74,6.9,1.29,0.14-.75a3.77,3.77,0,0,1-1.14-1.74,8.49,8.49,0,0,1,.18-2.62l2-10.66,4.53,0.85,0.33-1.75-4.53-.84,0.51-2.71C367.79,432.74,368.91,431.49,370.58,431.8Z"/>
    <path class="cls-1" d="M381,458.29a3.89,3.89,0,0,1-1.11-1.8,10,10,0,0,1,.31-2.6L383,441.06l-5.46.18-0.15.7a4.07,4.07,0,0,1,1,1.77,9,9,0,0,1-.25,3.07l-1.41,6.35a8.48,8.48,0,0,1-.86,2.48,3.75,3.75,0,0,1-1.73,1.16l-0.17.74,6.86,1.52Z"/>
    <path class="cls-1" d="M383,432.76a2.18,2.18,0,0,0-1.73.28,2.26,2.26,0,0,0-1,1.44,2.32,2.32,0,0,0,1.75,2.75,2.26,2.26,0,0,0,1.73-.31,2.29,2.29,0,0,0,1-1.45,2.36,2.36,0,0,0-.27-1.73A2.25,2.25,0,0,0,383,432.76Z"/>
    <path class="cls-1" d="M400.13,445.29a10.18,10.18,0,0,0-2.61-.33l-4.12,1.58,0.74-2.82-5.46,0-0.18.69a4,4,0,0,1,.9,1.8,8.94,8.94,0,0,1-.37,3.07l-1.64,6.28a8.49,8.49,0,0,1-1,2.44,3.76,3.76,0,0,1-1.77,1.1l-0.19.74,6.8,1.78,0.19-.73a4,4,0,0,1-1-1.84,10.36,10.36,0,0,1,.41-2.59l2.37-9.06a4.17,4.17,0,0,1,1.84-.49,6.75,6.75,0,0,1,2.07.15c1.54,0.4,2.41,1.22,2.54,2.38a9.16,9.16,0,0,1-.43,3.44l-1.42,5.41a8.31,8.31,0,0,1-1,2.44,3.69,3.69,0,0,1-1.77,1.09l-0.2.74,6.8,1.78,0.19-.73a3.52,3.52,0,0,1-1-1.83,8.36,8.36,0,0,1,.37-2.6l1.71-6.54C404,448.53,403,446.06,400.13,445.29Z"/>
    <path class="cls-1" d="M228.7,494.69a3.79,3.79,0,0,1-1.62-1.3,8.38,8.38,0,0,1-.66-2.54l-0.92-6.7a16.83,16.83,0,0,0-.52-2.6,5.57,5.57,0,0,1,3.23-1.74c1.68-.24,2.81.22,3.39,1.36a10.84,10.84,0,0,1,.75,3l0.79,5.76a8.42,8.42,0,0,1,.06,2.62,4.06,4.06,0,0,1-1.22,1.7l0.1,0.75,6.92-1-0.11-.75a4,4,0,0,1-1.62-1.3,8.68,8.68,0,0,1-.62-2.55l-0.94-6.84a7.86,7.86,0,0,0-1.74-4.3,4.41,4.41,0,0,0-4-1.2,8.07,8.07,0,0,0-2.34.71l-2.94,3.07a4.28,4.28,0,0,0-4.45-2.44,9,9,0,0,0-2.53.73l-2.9,3-0.4-2.92-5,2.07,0.09,0.71a4,4,0,0,1,1.52,1.32,9.09,9.09,0,0,1,.83,3l0.88,6.43a8.19,8.19,0,0,1,.05,2.62,3.75,3.75,0,0,1-1.21,1.69l0.1,0.75,7-1-0.11-.74a3.93,3.93,0,0,1-1.66-1.3,9.92,9.92,0,0,1-.62-2.54L214.93,483a5.09,5.09,0,0,1,3.18-1.77,3,3,0,0,1,3.12,1.06,10.81,10.81,0,0,1,.91,3.53l0.76,5.54A10.29,10.29,0,0,1,223,494a3.87,3.87,0,0,1-1.25,1.7l0.11,0.75,7-1Z"/>
    <path class="cls-1" d="M244.18,491.84a8.91,8.91,0,0,0,12-.94,10.65,10.65,0,0,0-1.07-13.74,8.81,8.81,0,0,0-12,.94A10.65,10.65,0,0,0,244.18,491.84Zm1.38-12.38a3.84,3.84,0,0,1,3.21-2.6,4,4,0,0,1,3.74,1.79,14.35,14.35,0,0,1,1.23,10.93,3.74,3.74,0,0,1-3.21,2.56,3.87,3.87,0,0,1-3.7-1.8,11.42,11.42,0,0,1-1.74-5.36A11.2,11.2,0,0,1,245.55,479.45Z"/>
    <path class="cls-1" d="M280.44,475.09l0-.75-4.53.12-0.92,1a6.44,6.44,0,0,0-4-1.39,7.2,7.2,0,0,0-5.84,3.22,11.58,11.58,0,0,0-2,7,11.34,11.34,0,0,0,1.51,5.47,6,6,0,0,0,5.37,2.84,10,10,0,0,0,2.22-.29l3.15-1.94,0,1.06a7.68,7.68,0,0,1-1.19,4.91,4.18,4.18,0,0,1-3.46,1.68,3.15,3.15,0,0,1-1.68-.48l-3.81-2.65-0.76,0,0.12,4.26a31.75,31.75,0,0,0,6.06.63,8.74,8.74,0,0,0,5.91-2.2A8.37,8.37,0,0,0,279,491L278.65,480C278.58,477.53,279.21,475.84,280.44,475.09Zm-7,15a6.1,6.1,0,0,1-5.11-1.86,7.69,7.69,0,0,1-1.57-4.9,8.64,8.64,0,0,1,1.4-5.29,5.29,5.29,0,0,1,4.1-2.15,4.83,4.83,0,0,1,2.74.79l0.36,13.17A13.63,13.63,0,0,1,273.45,490.09Z"/>
    <path class="cls-1" d="M295.52,482.48c-0.75-.47-1.61-0.94-2.66-1.48a25,25,0,0,1-2.73-1.74,2.41,2.41,0,0,1-1-1.9,1.76,1.76,0,0,1,.74-1.42,3,3,0,0,1,1.71-.43,3.86,3.86,0,0,1,2,.79l2.83,2.57,0.75,0,0.06-3.67a26.48,26.48,0,0,0-3.27-1,12.27,12.27,0,0,0-2.57-.27,5.65,5.65,0,0,0-4,1.37,4.26,4.26,0,0,0-1.49,3.3,4.68,4.68,0,0,0,.75,2.77,12,12,0,0,0,3,2.28,41.07,41.07,0,0,1,3.55,2.25,3.28,3.28,0,0,1,1.47,2.48,2.37,2.37,0,0,1-.82,1.77,4.26,4.26,0,0,1-2.7.75,3.86,3.86,0,0,1-2-.79l-2.87-2.58h-0.72l-0.06,3.66c0.87,0.32,1.65.56,2.14,0.71a14.48,14.48,0,0,0,3.66.55,7.45,7.45,0,0,0,5.17-1.5,5.21,5.21,0,0,0,1.57-3.8A5,5,0,0,0,295.52,482.48Z"/>
    <path class="cls-1" d="M319.89,492.51a3.43,3.43,0,0,1-1.46-2.1,11.15,11.15,0,0,1,0-2.12l0.81-13.12-5.36,1,0,0.71A3.73,3.73,0,0,1,315,478.5a9,9,0,0,1,.23,3.08l-0.53,8.52a7.29,7.29,0,0,1-2.69.62c-1.92-.12-3.14-0.65-3.68-1.59a7.16,7.16,0,0,1-.45-3.74l0.68-10.89-5.36,1,0,0.71a4.07,4.07,0,0,1,1.23,1.59,9.05,9.05,0,0,1,.23,3.08l-0.35,5.65a7.54,7.54,0,0,0,.81,4.63c0.8,1.14,2.43,1.77,4.76,1.92a7.85,7.85,0,0,0,1.9-.11l3-2a4.2,4.2,0,0,0,.68,1.93l4.45,0.27Z"/>
    <path class="cls-1" d="M338,481.28l0.44-4.21a12,12,0,0,0-5.31.65l-2,2.22,0.38-3.61-5.4.79-0.08.72a4,4,0,0,1,1.16,1.64,9,9,0,0,1,.09,3.08L326.54,489a8.52,8.52,0,0,1-.58,2.56,3.77,3.77,0,0,1-1.59,1.35l-0.08.75,7,0.74,0.08-.75a3.89,3.89,0,0,1-1.3-1.65,10,10,0,0,1,0-2.62l0.85-8a4.14,4.14,0,0,1,3.5-1.53,3.76,3.76,0,0,1,2.82,1.36Z"/>
    <path class="cls-1" d="M358.31,497.41a3.39,3.39,0,0,1-1.26-2.22,10.58,10.58,0,0,1,.17-2.12l2-13-5.43.54-0.11.71a3.68,3.68,0,0,1,1.08,1.7,8.93,8.93,0,0,1-.05,3.09l-1.29,8.44a7.39,7.39,0,0,1-2.73.39c-1.9-.3-3.07-0.93-3.53-1.92a7.22,7.22,0,0,1-.11-3.77l1.65-10.79-5.44.54-0.11.71a4,4,0,0,1,1.08,1.7,8.89,8.89,0,0,1-.05,3.08l-0.86,5.6a7.53,7.53,0,0,0,.39,4.69c0.69,1.22,2.26,2,4.57,2.35a7.87,7.87,0,0,0,1.9.06l3.13-1.7a4.29,4.29,0,0,0,.5,2l4.41,0.68Z"/>
    <path class="cls-1" d="M184.13,535.56c-0.84-.26-1.79-0.49-2.95-0.76a25.58,25.58,0,0,1-3.08-1,2.41,2.41,0,0,1-1.48-1.58,1.79,1.79,0,0,1,.36-1.57,3,3,0,0,1,1.54-.84,3.9,3.9,0,0,1,2.16.25l3.39,1.78,0.74-.17L184,528.11a26.42,26.42,0,0,0-3.42-.18,12.84,12.84,0,0,0-2.55.39,5.72,5.72,0,0,0-3.52,2.33,4.25,4.25,0,0,0-.6,3.57,4.7,4.7,0,0,0,1.42,2.5,12.43,12.43,0,0,0,3.43,1.46,39,39,0,0,1,4,1.28,3.27,3.27,0,0,1,2.05,2,2.39,2.39,0,0,1-.35,1.91A4.21,4.21,0,0,1,182,544.8a3.79,3.79,0,0,1-2.09-.27l-3.43-1.77-0.69.17,0.87,3.56c0.91,0.09,1.74.12,2.25,0.15a15,15,0,0,0,3.68-.39,7.48,7.48,0,0,0,4.61-2.76,5.22,5.22,0,0,0,.57-4.06A5,5,0,0,0,184.13,535.56Z"/>
    <path class="cls-1" d="M207.26,538.12a8.56,8.56,0,0,1-.81-2.5L205.14,529c-0.82-4.15-2.91-5.93-6.17-5.28a9.23,9.23,0,0,0-2.73,1.16l-2.31,2.89-2.16-10.86-4.93,2.33,0.14,0.7a4.3,4.3,0,0,1,1.6,1.23,9,9,0,0,1,1,2.92l2.85,14.34a8.27,8.27,0,0,1,.21,2.62,3.72,3.72,0,0,1-1.11,1.76l0.15,0.74,6.89-1.37-0.15-.74a3.88,3.88,0,0,1-1.74-1.2,10.06,10.06,0,0,1-.77-2.5l-1.83-9.19a4.13,4.13,0,0,1,1.45-1.25,6.59,6.59,0,0,1,1.93-.77c1.55-.31,2.7,0,3.32,1a9.17,9.17,0,0,1,1.12,3.28l1.09,5.49a8.31,8.31,0,0,1,.21,2.62,3.79,3.79,0,0,1-1.11,1.76l0.15,0.74,6.89-1.36-0.15-.74A3.53,3.53,0,0,1,207.26,538.12Z"/>
    <path class="cls-1" d="M218.51,536.31a10,10,0,0,1-.67-2.54l-2.05-13-5,2.17,0.11,0.71a4,4,0,0,1,1.54,1.29,9.07,9.07,0,0,1,.89,3l1,6.42a8.62,8.62,0,0,1,.11,2.62,3.8,3.8,0,0,1-1.18,1.71l0.11,0.75,6.94-1.1-0.12-.74A3.86,3.86,0,0,1,218.51,536.31Z"/>
    <path class="cls-1" d="M214.91,516.69a2.32,2.32,0,0,0,.38-1.7,2.38,2.38,0,0,0-.88-1.51,2.22,2.22,0,0,0-1.71-.38,2.15,2.15,0,0,0-1.5.88,2.26,2.26,0,0,0-.42,1.71,2.33,2.33,0,0,0,2.64,1.92A2.26,2.26,0,0,0,214.91,516.69Z"/>
    <path class="cls-1" d="M250.46,532.43a8.71,8.71,0,0,1-.54-2.56L249.18,523a7.87,7.87,0,0,0-1.61-4.35,4.42,4.42,0,0,0-4-1.32,8.52,8.52,0,0,0-2.37.63l-3,3a4.28,4.28,0,0,0-4.38-2.57,8.88,8.88,0,0,0-2.56.66l-3,2.9L228,519l-5.11,1.92,0.08,0.71A4,4,0,0,1,224.4,523a9.13,9.13,0,0,1,.74,3l0.69,6.46a8.37,8.37,0,0,1,0,2.63,3.7,3.7,0,0,1-1.26,1.66l0.08,0.75,7-.75-0.08-.75a3.91,3.91,0,0,1-1.62-1.35,10.19,10.19,0,0,1-.54-2.56l-1-9.32a5,5,0,0,1,3.24-1.68,3,3,0,0,1,3.08,1.15,10.85,10.85,0,0,1,.8,3.56l0.6,5.56a10,10,0,0,1,0,2.62,3.87,3.87,0,0,1-1.3,1.66l0.08,0.75,7-.75-0.08-.75a3.79,3.79,0,0,1-1.59-1.35,8.27,8.27,0,0,1-.58-2.56l-0.72-6.73a17.43,17.43,0,0,0-.43-2.61,5.55,5.55,0,0,1,3.28-1.65q2.54-.27,3.35,1.46a10.86,10.86,0,0,1,.66,3l0.62,5.79a8.38,8.38,0,0,1,0,2.63,4.09,4.09,0,0,1-1.27,1.65l0.08,0.75,7-.74-0.08-.75A4,4,0,0,1,250.46,532.43Z"/>
    <path class="cls-1" d="M262.56,516.07a8.24,8.24,0,0,0-5.92,2.67,10.66,10.66,0,0,0,.66,13.78,8.93,8.93,0,0,0,12-.58,10.65,10.65,0,0,0-.66-13.78A8.2,8.2,0,0,0,262.56,516.07Zm4.37,14.46a3.74,3.74,0,0,1-3.29,2.47,3.86,3.86,0,0,1-3.65-1.9,11.45,11.45,0,0,1-1.58-5.41,11.18,11.18,0,0,1,.64-5.52,3.84,3.84,0,0,1,3.29-2.51,4,4,0,0,1,3.68,1.9A14.36,14.36,0,0,1,266.92,530.53Z"/>
    <path class="cls-1" d="M292.4,530.92a10.91,10.91,0,0,1-.11-2.12l0.34-21.24-5.31,1.24v0.72a3.67,3.67,0,0,1,1.29,1.53,8.78,8.78,0,0,1,.37,3.07l0,2.72a7.54,7.54,0,0,0-4.22-1.32,7.29,7.29,0,0,0-5.44,2.37,10.92,10.92,0,0,0-2.84,7.36,11.72,11.72,0,0,0,1.09,5.27A6.23,6.23,0,0,0,283.2,534a10.09,10.09,0,0,0,2.23-.19l3.24-2a3.62,3.62,0,0,0,.81,1.83l4.46,0.07V533A3.45,3.45,0,0,1,292.4,530.92Zm-3.71.58a13,13,0,0,1-2,.16,6.59,6.59,0,0,1-5-2.12,7.32,7.32,0,0,1-1.54-4.94,8.16,8.16,0,0,1,1.67-5.19,5.53,5.53,0,0,1,4.53-2,7.45,7.45,0,0,1,2.53.65Z"/>
    <path class="cls-1" d="M306.41,516.09a8.25,8.25,0,0,0-6.16,2.08,10.65,10.65,0,0,0-.68,13.77,8.93,8.93,0,0,0,12,.6,10.65,10.65,0,0,0,.68-13.78A8.23,8.23,0,0,0,306.41,516.09Zm2.94,14.83a3.74,3.74,0,0,1-3.51,2.13,3.86,3.86,0,0,1-3.45-2.25,11.41,11.41,0,0,1-1-5.54,11.24,11.24,0,0,1,1.17-5.43,3.85,3.85,0,0,1,3.52-2.18,4,4,0,0,1,3.48,2.26A14.34,14.34,0,0,1,309.35,530.92Z"/>
    <path class="cls-1" d="M319.05,521.81l0.75,0.07,2.75-1.91a2.83,2.83,0,0,1,1.59-.35l3.76,0.35-10.78,14-0.07.75,14.33,1.32,0.4-4.4L331,531.6l-2.75,1.91a2.71,2.71,0,0,1-1.59.35l-4.78-.44,10.74-14,0.07-.75-13.28-1.22Z"/>
    <path class="cls-1" d="M346,519.82a8.24,8.24,0,0,0-6.31,1.52,10.64,10.64,0,0,0-1.9,13.65,8.93,8.93,0,0,0,11.93,1.66,10.65,10.65,0,0,0,1.9-13.65A8.24,8.24,0,0,0,346,519.82Zm3.27,9.68a11.5,11.5,0,0,1-1.65,5.34,3.74,3.74,0,0,1-3.68,1.81,3.86,3.86,0,0,1-3.23-2.54,11.41,11.41,0,0,1-.55-5.6,11.26,11.26,0,0,1,1.65-5.3,3.83,3.83,0,0,1,3.69-1.84,4,4,0,0,1,3.27,2.55A11.43,11.43,0,0,1,349.31,529.5Z"/>
    <path class="cls-1" d="M370.29,523.86a9.82,9.82,0,0,0-2.62-.15l-4,1.86,0.55-2.86-5.45.35-0.13.71a4,4,0,0,1,1,1.73,8.83,8.83,0,0,1-.16,3.08l-1.2,6.38a8.35,8.35,0,0,1-.78,2.5,3.73,3.73,0,0,1-1.69,1.22l-0.14.74,6.9,1.3,0.14-.74a3.92,3.92,0,0,1-1.16-1.76,9.9,9.9,0,0,1,.23-2.6l1.74-9.2a4.18,4.18,0,0,1,1.81-.62,6.37,6.37,0,0,1,2.07,0c1.56,0.3,2.5,1,2.7,2.2a9.15,9.15,0,0,1-.2,3.46l-1,5.49a8.22,8.22,0,0,1-.78,2.5,3.74,3.74,0,0,1-1.69,1.22l-0.14.74,6.9,1.31,0.14-.75a3.44,3.44,0,0,1-1.13-1.75,8.27,8.27,0,0,1,.18-2.62l1.26-6.64C374.38,526.82,373.26,524.42,370.29,523.86Z"/>
    <path class="cls-1" d="M387.66,527.62a8.22,8.22,0,0,0-6.43.93,10.66,10.66,0,0,0-3.18,13.41,8.93,8.93,0,0,0,11.72,2.78A10.66,10.66,0,0,0,393,531.32,8.23,8.23,0,0,0,387.66,527.62Zm2.34,9.95a11.5,11.5,0,0,1-2.15,5.16,3.76,3.76,0,0,1-3.84,1.46,3.87,3.87,0,0,1-3-2.84,11.39,11.39,0,0,1,0-5.63,11.18,11.18,0,0,1,2.14-5.12,3.83,3.83,0,0,1,3.85-1.49,4,4,0,0,1,3,2.85A11.41,11.41,0,0,1,390,537.56Z"/>
    <path class="cls-1" d="M109.9,169.43l0.72-.66,0.25-.4a3.58,3.58,0,0,1,1.21-1.53,3.47,3.47,0,0,1,2.33-.82l0.42,0a6.81,6.81,0,0,1,3.18,1.09h0l1.52,0.4a3,3,0,0,0,2.68-1.61l0,0,0.2-.95a3.54,3.54,0,0,0-1.87-2.81,7.27,7.27,0,0,0-3.78-1,9,9,0,0,0-1.87.2h0c-2.32.43-4.25,1.26-5.44,2.84h0a6.65,6.65,0,0,0-1.45,3.66v0a1.85,1.85,0,0,0,.79,1.62Z"/>
    <path class="cls-1" d="M112.4,194.31l0,0a4.7,4.7,0,0,0,3.85,1.89,6.81,6.81,0,0,0,3.55-1.1,12.25,12.25,0,0,0,5.78-8.3,22,22,0,0,0,.47-4.19,10.38,10.38,0,0,0-1.12-4.9,8.34,8.34,0,0,0-7.2-4.36h0l-0.61,0a13,13,0,0,0-8.89,3.75,39.61,39.61,0,0,0-5.27,6.67l-1.75-3.83c-0.31-.69-0.77-1.62-1.24-2.61a28.36,28.36,0,0,0,3.95-4.7,4.52,4.52,0,0,0,.77-2.38,2.91,2.91,0,0,0-.6-1.82h0a2.31,2.31,0,0,0-1.81-1l-1,.2a6.93,6.93,0,0,1-2.53.64H98.55c-1-.08-2.16-0.15-3.17-0.33l-0.3-.58,0-.05a5.3,5.3,0,0,0-2.46-2.17h0a8.12,8.12,0,0,0-2.67-.48l-0.72.05H89.09l-1.33.55-0.68,1.07h0v0.11h0l-0.06.45L87.33,168l1.27,0.7h0a3.85,3.85,0,0,1,2.3,1.42h0a35.44,35.44,0,0,1,2.23,3.55h0c0.32,0.69.91,1.79,1.58,3.12a13.76,13.76,0,0,1-1.47,1.54,4.52,4.52,0,0,1-2.51,1H90.29a6.72,6.72,0,0,1-1.85-.21H88.39L87.74,179A1.78,1.78,0,0,0,86,180.2h0v0.05l0,0h0l-0.12.55a1.74,1.74,0,0,0,.56,1.22l0.87,0.56,0.15,0a13.26,13.26,0,0,0,3.12.62h0a8.57,8.57,0,0,0,4.26-1.41h0c0.48-.32,1.06-0.8,1.67-1.32,0.18,0.38.36,0.73,0.56,1.15v0c1.15,2.39,2.19,4.56,3.07,6.35-1.12,1.71-2.18,3.19-2.61,3.83a28.93,28.93,0,0,1-1.78,2.56A7.75,7.75,0,0,0,91.64,196l0,0a3.93,3.93,0,0,0-1.35,2.79l0.38,1.41,0.76-.44-0.76.45a2.76,2.76,0,0,0,2.47,1.27,5.27,5.27,0,0,0,1.76-.33h0a8.23,8.23,0,0,0,3.86-3v0l0.22-.33a20,20,0,0,1,3.33,1.87h0a19.11,19.11,0,0,0,2.57,1.61l0.28,0.06,1,0.06,0.56-.17,1-.72,0.26-.3a6.31,6.31,0,0,0,.62-2.75v-0.39a5.42,5.42,0,0,0-.86-3.21h0a28.08,28.08,0,0,1-1.77-3.34l-1.31-2.89c0.73-1.16,1.48-2.34,2.22-3.45h0a19.12,19.12,0,0,1,5.68-5.46,8.51,8.51,0,0,1,4-1.15l1.27,0.18h0a4.49,4.49,0,0,1,2.9,3,7.51,7.51,0,0,1,.46,2.65,9.93,9.93,0,0,1-.72,3.66c-1,2.37-2.6,3.92-4.28,4.25l-0.18,0a2.83,2.83,0,0,1-2-1.28,7.74,7.74,0,0,1-1.42-3v0a12.54,12.54,0,0,1-.47-3l0.08-.9v-0.26a1.52,1.52,0,0,0-1.45-1.58,1.44,1.44,0,0,0-1.34,1.22h0v0h0a7.54,7.54,0,0,0-.17,1.75,21.7,21.7,0,0,0,.34,3.57v0A16.82,16.82,0,0,0,112.4,194.31ZM98.33,172.1c-0.15.25-.35,0.5-0.51,0.75l-0.49-1A8.05,8.05,0,0,0,98.33,172.1Zm3.79,20.12v0l0.07-.13c0.52,1.1.95,2,1.15,2.49l0.13,0.38-0.84-.17h-0.06l-1.7-.22C101.27,193.83,101.67,193.07,102.13,192.22Z"/>
    <path class="cls-1" d="M150.68,165.92v0c2.06,3,4,5.41,5.64,8.13a18.72,18.72,0,0,1,2.06,5.08,6,6,0,0,0,1.07,2.34,2.71,2.71,0,0,0,2.12,1.1l0.43,0h0a2.19,2.19,0,0,0,1.51-1.23,4.48,4.48,0,0,0,.39-2,9.65,9.65,0,0,0-.28-2.2v0a20,20,0,0,0-3.42-6.66c-1.55-2.15-4.77-5.84-6.13-7.45-0.95-1.12-2.61-3.24-4.06-5.11,0.82-.91,1.61-1.81,2.2-2.47a28.6,28.6,0,0,1,7.21-6.5,11,11,0,0,1,5.39-1.53,7,7,0,0,1,3.59.91,4.8,4.8,0,0,1,2.28,4.17,4.36,4.36,0,0,1-.56,2.21c-1.1,1.86-3.57,3.16-6.59,3.22a12.83,12.83,0,0,1-7-1.8l-0.47-.12-1.32,0L154,157.25l0.47,1.13,0.29,0.37a16.44,16.44,0,0,0,8.39,3.09l1.42,0.07a14,14,0,0,0,6.77-1.76h0a8,8,0,0,0,4.35-7l0-1.07a8.38,8.38,0,0,0-3-6.65h0a10.17,10.17,0,0,0-7-2.57l-1.27.07a15.61,15.61,0,0,0-7,2.49l0.07-.2a7.73,7.73,0,0,0-.33-1.73l0-.05a4.91,4.91,0,0,0-1.89-2.55h0l0,0h0c-0.77-.57-1.43-0.9-2.19-1.36l0,0a4.25,4.25,0,0,0-1.86-.66l-0.62.18,0,0s0,0-.07.06l-0.09,0,0,0a1.51,1.51,0,0,0-.76,1.3,3.68,3.68,0,0,0,.33,1.33h0l0,0v0h0l0.25,0.74-0.38-.06a15.65,15.65,0,0,0-3.13-.35h-0.5a10.44,10.44,0,0,0-4.95,1.29,5.23,5.23,0,0,0-2.51,4.38v0.09h0a9.91,9.91,0,0,0,1.89,5.41l0,0c0.83,1.07,2,2.39,3.24,3.83l-2.75,2.65a8.28,8.28,0,0,1-3.52,2h0a7.76,7.76,0,0,0-1.85.57,2.41,2.41,0,0,0-1.32,1.66l0,0.3a3,3,0,0,0,1.95,2.4l0,0a5.84,5.84,0,0,0,2.33.54l1.4-.21h0c1.56-.43,2.67-1.47,4.26-3.17h0c0.67-.65,1.64-1.69,2.69-2.84C148.35,162.51,149.5,164.11,150.68,165.92Zm-2.43-12.77h0l-1.14,1.08a38.07,38.07,0,0,1-2.63-3.45,7.4,7.4,0,0,1-1.14-3.4l0.08-.52c0.5-1,1-1.46,2.76-1.67h0.33a9.24,9.24,0,0,1,3.64.94h0a17.64,17.64,0,0,0,3.27,1.37h0.06l1,0.12h0C152.32,149.41,150,151.57,148.25,153.15Z"/>
    <path class="cls-1" d="M188.32,148.48a5.6,5.6,0,0,0,1.39,1.16,9.4,9.4,0,0,0,4.44,1.22l1.12-.09h0a9.55,9.55,0,0,0,5.7-3.6c1.34-1.67,3.1-4,4.33-5.25l0,0a27.66,27.66,0,0,1,4.3-4.06l0,0a9.45,9.45,0,0,1,4.48-1.71l0.66,0a6.84,6.84,0,0,1,4.4,1.55,6.7,6.7,0,0,1,2.29,4.56,16.37,16.37,0,0,1,.16,2.29,10.32,10.32,0,0,1-.6,3.82h0a17.26,17.26,0,0,1-3.95,5.69,32.92,32.92,0,0,1-6.41,4.36h0a11.45,11.45,0,0,1-3.3,1.25h0a1.79,1.79,0,0,0-1.42,1.64l0,0.24h0l0.76,0.92,0.92,0.16,0.36,0h0.09a23.46,23.46,0,0,0,4.4-1.51h0a42,42,0,0,0,7-4.36,19.67,19.67,0,0,0,6.16-7.18,13.8,13.8,0,0,0,1.19-5.47,12.9,12.9,0,0,0-.52-3.59,11.17,11.17,0,0,0-4.58-6.65,12.32,12.32,0,0,0-6.81-2.12,10.38,10.38,0,0,0-1.87.17h0a19.57,19.57,0,0,0-7.15,3.36,54.73,54.73,0,0,0-5,3.87l0,0c-1.23,1.13-4.21,3.73-5,4.33a8.87,8.87,0,0,1-2.65,1.81,10.74,10.74,0,0,1-1.91.17l-1,0h0l-0.58,0a2,2,0,0,0-1.82,1h0v0l0,0h0l-0.17.62A2.39,2.39,0,0,0,188.32,148.48Z"/>
    <path class="cls-1" d="M262.09,148.73h0c-3.28.53-5.73,2.57-6,5.5l0,0.78a6.34,6.34,0,0,0,3.49,6,11.31,11.31,0,0,0,9.18-.26c2.44-1.4,2.69-4.17,2.7-5.52l0.8,0.43a7.12,7.12,0,0,0,2.85,1.1l0.62-.11h0a2.19,2.19,0,0,0,1.11-2.14l-0.2-1.28h0a4.66,4.66,0,0,0-2.2-2.54h0l-0.06,0,0,0h0a16,16,0,0,0-4.26-1.54l-0.16-.44h0c-0.62-2-1.39-4.72-1.83-6.5a11.35,11.35,0,0,1-.32-2.69,8.83,8.83,0,0,1,.15-1.67,9.62,9.62,0,0,0,.3-1.64,1.38,1.38,0,0,0-.68-1.19l0,0-0.06,0s0,0,0,0v0l-0.51-.15a1.84,1.84,0,0,0-1.32.7l-0.77,1.22h0v0h0a6.58,6.58,0,0,0-.51,2.61,7.73,7.73,0,0,0,.26,2h0v0h0c0.37,1.57.94,3.84,1.32,5.5v0c0.14,0.53.26,1.15,0.4,1.73-0.3,0-.6,0-0.91,0A22.94,22.94,0,0,0,262.09,148.73Zm3.5,7.62h0a5.46,5.46,0,0,1-2.46.6,6.26,6.26,0,0,1-1.65-.24,2.24,2.24,0,0,1-1.83-2V154.5c0-.79,1.16-1.9,2.63-2h0l1.26-.07a9.41,9.41,0,0,1,3.3.62,7.89,7.89,0,0,1-.26,2.11A1.8,1.8,0,0,1,265.6,156.35Z"/>
    <path class="cls-1" d="M246.62,134.93c-0.68,2.35-2,7.23-2.63,8.61l0,0c-0.68,1.63-1.13,2.81-1.64,3.89v0a7.77,7.77,0,0,0-.67,2.82l0.28,1.39h0a4.73,4.73,0,0,0,2.38,2.33h0l1.08,0.25,1.33-.52a2,2,0,0,0,.56-1.48v-0.49a21.7,21.7,0,0,1,.46-5.3v0c0.48-1.7,1.84-5.92,2.38-7.72h0c0.58-1.78,1.69-5.39,2-6.46a28.32,28.32,0,0,0,5.69-1.37c1.81-.67,2.92-1.2,3.59-2.14l0.4-1.3a2.34,2.34,0,0,0-.7-1.66h0l0,0h0a5.67,5.67,0,0,0-2.81-1.32c-1.16-.28-2.37-0.76-3.24-1l-0.42-.14a4.4,4.4,0,0,0-.22-1.41,5.48,5.48,0,0,0-1.93-2.53l0,0a3.73,3.73,0,0,0-2.06-.69l-1.23.46h0l-0.56,1.26,0.44,1.28h0a5.38,5.38,0,0,1,.75,2.24v0.24a8.92,8.92,0,0,1-.85,3.29l0,0.1c-0.09.3-.25,0.76-0.41,1.3l-0.9-.08h-0.05a10.3,10.3,0,0,1-2.4-.61l-0.23-.05-1.69-.15-0.82.4-0.21.72a2,2,0,0,0,.56,1.29l1.1,0.91h0a9.51,9.51,0,0,0,3.5,1.29c-0.23.87-.45,1.71-0.69,2.37Zm8.27-8.29,0.26,0.18-0.21.15c-0.34.17-.66,0.26-1,0.41l0.13-.39,0,0c0-.17.1-0.41,0.15-0.6Z"/>
    <path class="cls-1" d="M276.73,128.4h0a16.16,16.16,0,0,0-4.2-2.42h0a15.65,15.65,0,0,0-3.1-1.12l-1.19-.14a2.07,2.07,0,0,0-1.74.71l-0.21.68a1.77,1.77,0,0,0,1.3,1.54l0.09,0a9.2,9.2,0,0,1,2.41,1.58,14.85,14.85,0,0,1,2.48,2.37,7.36,7.36,0,0,0-2.61.83l-0.16.12-0.66.64-0.27.68,0.43,0.81a3.37,3.37,0,0,0,2,.43h0.05c0.78,0,1.47-.11,2-0.11l0.5,0H274a3.88,3.88,0,0,1,1.52.37l0.45,0.08,1.9-.16,0.41-.14a2.69,2.69,0,0,0,1.25-2.26l-0.21-1.14v0a7.67,7.67,0,0,0-2.55-3.39h0Z"/>
    <path class="cls-1" d="M331.23,129.41h0a11.22,11.22,0,0,0-3.64-.7,6.18,6.18,0,0,0-2.48.49,6.77,6.77,0,0,0-3.08,2.48l-0.13.4-0.08,1,1.08,0.94,0.95-.23,0.42-.23a3.66,3.66,0,0,1,1.82-.74l0.62-.07a3.73,3.73,0,0,1,2.15.72,6.74,6.74,0,0,1,2.24,2.51,3.09,3.09,0,0,0,2.64,1.5,2.84,2.84,0,0,0,1.61-.47l0,0a2.47,2.47,0,0,0,1-2,4.42,4.42,0,0,0-.58-2.07,7.83,7.83,0,0,0-4.53-3.45h0Z"/>
    <path class="cls-1" d="M291,151.39h0a2.65,2.65,0,0,0,1,2,4.79,4.79,0,0,0,2.2.91h0l1.28,0.08a8,8,0,0,0,3.56-.82h0l0.36-.18a20.09,20.09,0,0,1,2,3.27h0a18.09,18.09,0,0,0,1.45,2.66l0.21,0.2L304,160l0.58,0.14,1.23-.14,0.37-.13a6.16,6.16,0,0,0,1.9-2.12h0a6.2,6.2,0,0,0,1-3.13l0-.41h0l0-1c0-.9.05-1.86,0.14-2.76,0-.44.14-1.64,0.27-3.16,1.2-.66,2.44-1.31,3.63-1.91h0a19.08,19.08,0,0,1,7.64-2,7.21,7.21,0,0,1,5,1.74l0,0a4.1,4.1,0,0,1,1.14,3l-0.07,1a8.85,8.85,0,0,1-3.32,5.35h0a7.65,7.65,0,0,1-4.52,1.81l-1.31-.21c-0.74-.22-1.36-1.58-1.34-3.26a7.69,7.69,0,0,1,.32-2.19v0c0.68-2.4,1.11-3,1.56-3.56l0-.05,0.32-1a1.4,1.4,0,0,0-1.34-1.44l-1.13.57h0l0,0h0a15.3,15.3,0,0,0-2.48,4.72v0a16.79,16.79,0,0,0-.87,5.3,16,16,0,0,0,.08,1.6v0c0.31,2.59,2.67,4.38,5.72,4.35h0.33a12.26,12.26,0,0,0,9.12-4.39c2.44-2.84,3.78-5.29,3.91-8.23v-0.32a8.38,8.38,0,0,0-4.13-7h0l0,0h0a12.41,12.41,0,0,0-6.64-1.86,13.45,13.45,0,0,0-3.45.44,39.55,39.55,0,0,0-7.86,3.21c0.16-1.88.31-3.53,0.37-4.2s0.12-1.79.2-2.88a28.21,28.21,0,0,0,5.75-2.15,3.78,3.78,0,0,0,2.24-3.16l0-.42v0l-0.68-1.42-1.39-.63a6.41,6.41,0,0,1-2.72-.81c-0.85-.57-1.8-1.19-2.59-1.83l0-.65v-0.06a5.23,5.23,0,0,0-1.08-3.1h0l0,0h0a7.57,7.57,0,0,0-2.74-2l-0.06,0-1.17-.19-1.38.62,0,0,0,0.07h0a1.94,1.94,0,0,0-.53,1.29l0.78,1.47,0,0a3.87,3.87,0,0,1,1.3,2.36c0.1,1.07.21,2.42,0.21,3.57v0.59h0c-0.06.76-.09,2-0.16,3.53a14.33,14.33,0,0,1-2,.62l-0.73.06a4.4,4.4,0,0,1-2-.44h0a7.39,7.39,0,0,1-1.91-1.31l-0.51-.25-1.49-.18-1,.94,0.1,1.47,0.29,0.6a13.7,13.7,0,0,0,2.41,2.08l0,0a8.39,8.39,0,0,0,3.83.88l0.58,0a19.63,19.63,0,0,0,2.12-.32c0,0.42,0,.82-0.08,1.27v0c-0.18,2.65-.33,5-0.45,7-1.81.93-3.46,1.71-4.16,2.06a28.1,28.1,0,0,1-2.79,1.34,8,8,0,0,0-3.3-.76l-1.11.09h0a3.44,3.44,0,0,0-2.91,3.13v0.06h0v0ZM310.69,131c0-.36.05-0.73,0.07-1.12a8.27,8.27,0,0,0,.75.71C311.25,130.77,311,130.9,310.69,131Zm-5.76,19,0.13-.08c-0.09,1.21-.18,2.24-0.22,2.74l-0.07.39c-0.17-.14-0.38-0.31-0.65-0.55l0,0-1.38-1c0.71-.45,1.38-0.88,2.23-1.41h0Z"/>
    <path class="cls-1" d="M352,141.34a7.4,7.4,0,0,1-2-.27,6.94,6.94,0,0,0-2.08-.45,2.34,2.34,0,0,0-1.79.77l0,0-0.4,1.19a3.94,3.94,0,0,0,.72,2.06l0,0a5.28,5.28,0,0,0,3,2.16h0l1.4,0.18a13.8,13.8,0,0,0,3.87-.77h0c0.9-.21,2.27-0.62,3.76-1.08,0.22,1.84.4,3.8,0.5,6v0c0.24,3.66.71,6.7,0.73,9.87a18.71,18.71,0,0,1-.81,5.42,7.09,7.09,0,0,0-.31,1.93,2.85,2.85,0,0,0,1.7,2.85l0,0L361,171.4a2.82,2.82,0,0,0,2.16-1.26,8.55,8.55,0,0,0,1.3-2.67v0a16.75,16.75,0,0,0,.59-4.59c0-.94-0.06-1.9-0.15-2.88-0.25-2.64-1.15-7.46-1.49-9.54-0.25-1.45-.61-4.11-0.9-6.46l3.15-1a28.62,28.62,0,0,1,9.51-1.95c3.43,0,6.68,1.53,8,4a4.64,4.64,0,0,1,.55,2.2,4.88,4.88,0,0,1-2.31,4.17,5.92,5.92,0,0,1-2.86.68,9.26,9.26,0,0,1-4.47-1.26h0a12.92,12.92,0,0,1-5.1-5.1h0a2,2,0,0,0-1.74-1.14l-0.39.09v0l0,0-0.13,0,0,0.06-0.66.58-0.15.78,0.18,0.91a16.55,16.55,0,0,0,5.66,6.93,14,14,0,0,0,7.91,2.7h0.23A8,8,0,0,0,387,152.9h0a9.15,9.15,0,0,0,1.88-5.33,9.37,9.37,0,0,0-.47-2.81h0a10.49,10.49,0,0,0-5.84-6.34,15.44,15.44,0,0,0-6.52-1.44c-0.22,0-.47,0-0.7,0a3,3,0,0,0,.28-0.43l0.44-1.36v-0.06l0.12-1.11a4.71,4.71,0,0,0-.47-2h0a26.3,26.3,0,0,0-1.23-2.35l0,0-0.69-1a1.93,1.93,0,0,0-1.15-.66v0h-0.26a1.55,1.55,0,0,0-1.39,1L370.76,130h0l-0.14.7-0.43-.2a14.64,14.64,0,0,0-2.85-2h0a10.36,10.36,0,0,0-4.8-1.38h-0.16a5.23,5.23,0,0,0-4.34,2.53h0a9.44,9.44,0,0,0-1.17,4.72l0,0.94v0c0.18,1.34.52,3.08,0.85,4.95l-3.71.89A9.2,9.2,0,0,1,352,141.34Zm11.4-2.38h0l-1.53.35a37.43,37.43,0,0,1-.5-4.31v-0.2c-0.05-1.58.66-3.53,1.07-3.71a2.4,2.4,0,0,1,1.47-.51,4.1,4.1,0,0,1,1.76.47,8.82,8.82,0,0,1,2.93,2.8h0a17.75,17.75,0,0,0,2.14,2.86l0,0a4,4,0,0,0,.94.63C368.87,137.78,365.72,138.48,363.39,139Z"/>
    <path class="cls-1" d="M434.75,154.71a2.86,2.86,0,0,0,.66-1.74,2,2,0,0,0-1.52-2,20.89,20.89,0,0,1-4.26-1.74l0,0a27.92,27.92,0,0,1-4.32-3.53c-1-.94-1.87-1.84-2.48-2.56l0,0a3.73,3.73,0,0,0-2.57-1.16l-1.46.47v0l0,0h0a2.59,2.59,0,0,0-1.14,2.2,4.46,4.46,0,0,0,.44,1.83l0,0a25.69,25.69,0,0,1,1.48,4.78v0c0.13,0.52.28,1.21,0.42,2-0.67,0-1.38,0-1.94-.06-2-.2-3.9-0.4-5.63-0.72a17.16,17.16,0,0,1-5.09-1.68l0,0a7.46,7.46,0,0,1-2.52-2.14l0,0-0.71-.89a2.08,2.08,0,0,0-1.46-.72l-0.55.1-0.08,0a1.46,1.46,0,0,0-.78,1.37,3.72,3.72,0,0,0,.49,1.67h0v0h0a12.14,12.14,0,0,0,3.33,3.56,19.52,19.52,0,0,0,6.92,3,54.84,54.84,0,0,0,8.26,1.26h0l0.51,0a8.61,8.61,0,0,1,.08.86v0.11c0.15,2.47.42,5.12,0.5,6l0,0.63a6.37,6.37,0,0,1-.17,1.51,0.85,0.85,0,0,1-.48.7l-0.11,0-0.07,0a17.67,17.67,0,0,1-2.63-1.83l0,0a40.25,40.25,0,0,0-4.48-2.78h0a20.15,20.15,0,0,0-7.25-1.8h-0.09a7.78,7.78,0,0,0-7.25,4.88,10.66,10.66,0,0,0-.65,3.71,12.15,12.15,0,0,0,1.37,5.56h0a15,15,0,0,0,7,6.64,36.63,36.63,0,0,0,8.19,2.74l1.07,0.09a3,3,0,0,0,1.7-.44,1.86,1.86,0,0,0,.79-1.58l0-.42a4.15,4.15,0,0,0-2.68-3.15,33.14,33.14,0,0,0-3.85-1,16.27,16.27,0,0,1-4.85-2.15h0a10.21,10.21,0,0,1-3.7-3.56,7.76,7.76,0,0,1-1.07-3.79l0.2-1.46a3.66,3.66,0,0,1,3.61-2.64l0.36,0a13.82,13.82,0,0,1,9.32,5.33c1.81,2.29,3.4,4.48,5.84,4.58l0.9-.12a3.66,3.66,0,0,0,2.6-2.66,8.71,8.71,0,0,0,.25-2.36l0-1.44h0c0-1.37-.09-4.74-0.12-6.5v0c0-.87-0.11-2.25-0.2-3.65a28.14,28.14,0,0,0,4.87-.57,12,12,0,0,0,5.17-2.78Zm-10.4-1.54h-0.23c-0.23-1.75-.46-3.81-0.67-4.63v0a18.62,18.62,0,0,0,2.18,2c0.94,0.76,1.84,1.49,2.53,2a29.88,29.88,0,0,1-3.81.57h0Z"/>
    <path class="cls-1" d="M481.15,188.33l0-.87a11,11,0,0,0-1.61-5.69,10,10,0,0,0-3.5-3.36h0l0,0h0a2.61,2.61,0,0,0-1.41-.57l-1.13.64,0,0v0h0l-0.27.81a1.89,1.89,0,0,0,.88,1.48,8.93,8.93,0,0,1,2.17,2.57,4,4,0,0,1,.44,1.75,4.38,4.38,0,0,1-.6,2.11c-0.89,1.67-2,3-2.32,4.38h0l0,0.49a3.08,3.08,0,0,0,1.72,2.7h0l0,0h0l1.38,0.4a2.71,2.71,0,0,0,2.24-1.39h0l0,0h0a13.4,13.4,0,0,0,2.05-5.42v0Z"/>
    <path class="cls-1" d="M454.79,187.15l0.36-.37,0.39-.76,0.1-.5a1.12,1.12,0,0,0-.69-0.88l-0.75-.15-0.83.15a8.72,8.72,0,0,0-2.8,1.64l-0.08.08-0.84,1-0.38.17-1.63-1h0a5.92,5.92,0,0,1-1.33-2.53v0l-0.07-.72a11.53,11.53,0,0,1,1.52-5h0c1.6-3.27,2.82-5.55,4.08-7.76h0c1.22-2.07,2.22-4,2.24-5.86v-0.36a7.69,7.69,0,0,0-1.25-3.55l0,0-0.79-.91a2.22,2.22,0,0,0-1.44-.65l-0.85.28-0.08.07a2.11,2.11,0,0,0-.56,1.6l0.24,1.43,0.12,0.78a5.15,5.15,0,0,1-.58,2.19c-0.86,1.7-2.65,5.33-3.81,7.75a37.73,37.73,0,0,0-2.74,7.37,10.68,10.68,0,0,0-.23,2.3,15.3,15.3,0,0,0,1.11,5.74h0a11.49,11.49,0,0,0,4.91,5.6h0a5.73,5.73,0,0,0,2.64.9l1.5-.67,0,0a3.08,3.08,0,0,0,.58-1.89l-0.13-1.35v-0.06l0-.23a5.59,5.59,0,0,1,.71-2.37A3.91,3.91,0,0,1,454.79,187.15Z"/>
    <path class="cls-1" d="M11.74,263.49a5.35,5.35,0,1,0-10.25,3.06L99,593.21a5.35,5.35,0,1,0,10.25-3.06Z"/>
    <path class="cls-1" d="M562.91,259.89a5.35,5.35,0,0,0-6.65,3.6L458.71,590.15A5.35,5.35,0,1,0,469,593.21l97.55-326.67A5.35,5.35,0,0,0,562.91,259.89Z"/>
    <path class="cls-1" d="M9.38,185.76a5.36,5.36,0,0,0,5.64-5A122.43,122.43,0,0,1,170.11,69.66l5.69-1.92a136.61,136.61,0,0,1,217.65-.1l5.68,1.92A122.43,122.43,0,0,1,553.86,180.71a5.35,5.35,0,0,0,10.69-.59h0a132.86,132.86,0,0,0-164.8-121.7,147.14,147.14,0,0,0-230.24.09A132.85,132.85,0,0,0,4.33,180.12,5.36,5.36,0,0,0,9.38,185.76Z"/>
  </g>
</svg>
