<svg id="レイヤー_1" data-name="レイヤー 1" xmlns="http://www.w3.org/2000/svg" width="80" height="80" viewBox="0 0 80 80">
  <defs>
    <style>
      .cls-1 {
        fill: #658c1a;
        fill-rule: evenodd;
      }
    </style>
  </defs>
  <title>mark</title>
  <g>
    <path class="cls-1" d="M59.37,3a1.37,1.37,0,0,1,.54.18,2,2,0,0,1,.81,1,1.78,1.78,0,0,1,.11.83,1.38,1.38,0,0,1-1.25,1.17A2.63,2.63,0,0,1,58,5.57,1.63,1.63,0,0,1,57.44,5C56.81,3.81,58.25,2.85,59.37,3Z"/>
    <path class="cls-1" d="M55.81,4.46c1.81,0.28.87,3.88-1.3,2.64a1.14,1.14,0,0,1-.45-1.79,1.42,1.42,0,0,1,1.75-.86h0Z"/>
    <path class="cls-1" d="M61.13,7.65a1.7,1.7,0,0,1,0,2.48,1.62,1.62,0,0,1-1.87-.21,1.47,1.47,0,0,1,1.85-2.27h0Z"/>
    <path class="cls-1" d="M58.37,9.33a1.38,1.38,0,0,1-1.74,1.41A1.89,1.89,0,0,1,55,9.14c-0.08-1.36,1.31-1.49,1.89-1.49A2,2,0,0,1,58.37,9.33Z"/>
    <path class="cls-1" d="M53.89,9.62c-0.59,1-1.58.71-2.39,0.08a1.4,1.4,0,0,1-.44-2.11A1.67,1.67,0,0,1,52.85,7C53.39,7.22,54.56,8.5,53.89,9.62Z"/>
    <path class="cls-1" d="M59.74,11.06c1,0,1.79,1.7,1.4,2.49a1.74,1.74,0,0,1-2.56.37C57,12.72,57.94,11.06,59.74,11.06Z"/>
    <path class="cls-1" d="M53.86,11c0.87,0.21,2.81,1.18,2.86,2.23A1.22,1.22,0,0,1,55,14.51c-0.67-.22-2.6-1.08-2.8-1.79A1.59,1.59,0,0,1,53.86,11h0Z"/>
    <path class="cls-1" d="M50,10a1.64,1.64,0,0,1,.44.21,1.91,1.91,0,0,1,.69,2.2,1.13,1.13,0,0,1-.43.57,1.34,1.34,0,0,1-.94.1,2.5,2.5,0,0,1-1.61-.88C47.17,10.89,48.73,9.66,50,10Z"/>
    <path class="cls-1" d="M58,15c0.7,0.21,1.7,1,1.55,1.78A1.45,1.45,0,0,1,57.63,18a1.63,1.63,0,0,1-1.53-1.77A1.39,1.39,0,0,1,58,15h0Z"/>
    <path class="cls-1" d="M54.56,15.1a1.7,1.7,0,0,1-.28,3c-0.83.26-3-1.13-3.52-1.7a1.49,1.49,0,0,1,.6-2.5c1.13-.45,2.28.69,3.2,1.23h0Z"/>
    <path class="cls-1" d="M47.48,12.78a2.58,2.58,0,0,1,2.2,2.1c0.15,1-.11,1.64-1.38,1.63-0.94,0-2.9-1.19-2.93-2.3s1.23-1.6,2.11-1.42h0Z"/>
    <path class="cls-1" d="M57.35,18.89c0.89,0.59,1.61,1.42.75,2.4a2,2,0,0,1-2.93-.18,1.55,1.55,0,0,1-.35-2.18c0.75-1,1.67-.64,2.54,0h0Z"/>
    <path class="cls-1" d="M50.4,17.09c0.8,0.32,2.77,1.08,3.05,2.06a1.45,1.45,0,0,1-1.74,1.77c-0.69-.16-2.75-1.42-2.93-2-0.24-.82.74-2.15,1.62-1.79h0Z"/>
    <path class="cls-1" d="M44.8,15.46c0.89,0.39,2.68,1.18,3,2.12a1.75,1.75,0,0,1-.74,2c-0.68.37-.55,0.23-1.35-0.08s-2.74-1.3-2.94-2,1.13-2.35,2-2h0Z"/>
    <path class="cls-1" d="M53.78,21.24a6.82,6.82,0,0,1,3.17,2,1.45,1.45,0,0,1-1.6,2.26,6.52,6.52,0,0,1-3.1-2.07,1.66,1.66,0,0,1,1.53-2.22h0Z"/>
    <path class="cls-1" d="M48.57,20c1.1,0.34,3.28,1.38,3.16,2.79s-1.2,1.66-2.27,1.13c-0.74-.37-2.59-1.11-2.81-2A1.82,1.82,0,0,1,48.57,20h0Z"/>
    <path class="cls-1" d="M45.18,22.25c-1,.66-3.18-0.65-3.88-1.35a1.49,1.49,0,0,1,.17-2.32c0.75-.44,2.53.47,3.53,1.13C45.57,20.09,45.92,21.76,45.18,22.25Z"/>
    <path class="cls-1" d="M55.82,27.3a1.28,1.28,0,0,1-1.91,1.42,7.1,7.1,0,0,1-2.5-1.57A0.93,0.93,0,0,1,51.34,26a1.46,1.46,0,0,1,1.56-1.07C53.18,25,55.67,26,55.82,27.3Z"/>
    <path class="cls-1" d="M63.44,30.7C57.24,34.2,53.28,40.64,49.91,47s-6.6,13-12.06,17.67c-3.07,2.62-7.05,4.53-11,4a1,1,0,0,0-.69.06,1,1,0,0,0-.3.46L24.6,72.23l-1-.68A3.2,3.2,0,0,1,20.85,75a3.44,3.44,0,0,1-3.59-2.62,4,4,0,0,1,1.88-4.18l-1.6,0,2-2.85C16.55,62,16,57.1,16.91,52.74s3.24-8.32,5.5-12.18l4.5-7.69a29,29,0,0,0,3-6.31,14.44,14.44,0,0,0,.58-4.25c0-.43-0.32-1.59.06-1.87,0.59-.45.73,0.68,0.82,1A24.43,24.43,0,0,1,32,30.12,63.1,63.1,0,0,1,29.73,41C28,47.14,26.24,53.33,26.26,59.66a3.87,3.87,0,0,0,2.06-.76C37.79,53,44.1,43,52.84,36c3.15-2.52,6.72-4.69,10.67-5.38Z"/>
    <path class="cls-1" d="M46.78,23.23c0.92,0.55,2.87,1.21,3,2.46,0.13,1.69-1.29,1.89-2.42,1.33-0.91-.45-2.89-1.27-2.75-2.46,0.11-.91,1.41-1.8,2.2-1.33h0Z"/>
    <path class="cls-1" d="M40.58,21.53c0.88,0.26,3,1.55,3.07,2.49,0.11,1.54-1.57,1.77-2.64,1.38s-2.55-1.22-2.44-2.46a1.47,1.47,0,0,1,2-1.41h0Z"/>
    <path class="cls-1" d="M50.67,27.69c0.73,0.38,3,1.3,3.29,2.15a2.28,2.28,0,0,1-.68,1.65,1.19,1.19,0,0,1-1.56.21c-0.85-.35-2.83-1.19-3-2.2a1.93,1.93,0,0,1,.59-1.39c0.48-.57.67-0.75,1.34-0.42C51.76,28.25,50.55,27.63,50.67,27.69Z"/>
    <path class="cls-1" d="M44.19,26.17c0.82,0.29,2.88,1.22,3.32,2a1.62,1.62,0,0,1-1.84,2.32,7.11,7.11,0,0,1-1.77-1.05,2.17,2.17,0,0,1-1.33-1.32c-0.21-.82.54-2.31,1.61-1.93h0Z"/>
    <path class="cls-1" d="M49.47,31.64c0.27,0.06,2.86,1.11,2.61,1.7-0.7,1.29-1.73,1.81-3.55.56C47.24,33,47.75,31.24,49.47,31.64Z"/>
    <path class="cls-1" d="M40.34,26.06a1.42,1.42,0,0,1-.07,2.64c-1,.45-3-0.81-3.67-1.55A1.81,1.81,0,0,1,37,24.77c1.06-.69,2.4.88,3.33,1.29h0Z"/>
    <path class="cls-1" d="M43.49,30a6.29,6.29,0,0,1,1.73,1,3.7,3.7,0,0,1,1.35,1,1.39,1.39,0,0,1-1.26,2,6,6,0,0,1-3.12-1.73A1.49,1.49,0,0,1,43.49,30h0Z"/>
    <path class="cls-1" d="M39.08,29.5c1,0.59,2.61,2.26.73,3.16-1.18.57-3-1.08-3.81-1.61-1.29-.85-2.24-2.06-1.2-2.85C35.45,27.71,36.13,27.78,39.08,29.5Z"/>
    <path class="cls-1" d="M49.51,36.15c-0.44.59-1.33,1.55-2.12,1.4a2,2,0,0,1-1.58-1.91,2.14,2.14,0,0,1,.82-1.27C47.09,34.11,50.18,35.27,49.51,36.15Z"/>
    <path class="cls-1" d="M41.88,33.37c0.9,0.18,2.9,1.19,3.19,2.15a1.79,1.79,0,0,1-.49,1.61c-0.53.56-.92,0.38-1.63,0.1-0.86-.33-2.59-1.07-2.84-2a1.52,1.52,0,0,1,1.77-1.83h0Z"/>
    <path class="cls-1" d="M46.72,38.42c0.45,0.33-1.83,3.19-2,1.24a1.39,1.39,0,0,1,2-1.24h0Z"/>
    <path class="cls-1" d="M36.13,34.25c-0.63.81-1.84,0.45-2.52-.2s-0.36-2.33.12-3.19C34.15,30.85,37.51,32.46,36.13,34.25Z"/>
    <path class="cls-1" d="M38,33.93c0.81,0.09,1.79,1,1.53,1.84a1.37,1.37,0,0,1-1.78.85c-1.34-.47-1.46-2.91.24-2.69h0Z"/>
    <path class="cls-1" d="M43.39,38.27a1.46,1.46,0,0,1-.51,2.63,1.92,1.92,0,0,1-1.57-.51,17,17,0,0,1-1.95-1.12,1.41,1.41,0,0,1,.48-2.4c1-.42,2.67.84,3.55,1.39h0Z"/>
    <path class="cls-1" d="M34.93,35.78a6.37,6.37,0,0,1,3.14,1.94c0.78,1.24-.85,2.55-2,2.14-0.88-.31-2.56-1.26-2.86-2.2a1.58,1.58,0,0,1,1.73-1.88h0Z"/>
    <path class="cls-1" d="M41.67,41.93c0.85,0.85.29,2.71-1,2.64a6.07,6.07,0,0,1-3.09-1.67,1.21,1.21,0,0,1-.29-1.59,1.41,1.41,0,0,1,1.66-1A5.67,5.67,0,0,1,41.67,41.93Z"/>
    <path class="cls-1" d="M34.51,39.7a4.62,4.62,0,0,1,1.65,1.11c0.48,0.91-.8,2.17-1.69,1.92s-2.54-1.12-2.58-1.93c0-.49.34-2,1-2A10.54,10.54,0,0,1,34.51,39.7Z"/>
    <path class="cls-1" d="M37.13,43.7a10.2,10.2,0,0,1,2.47,1.51,1,1,0,0,1-.11,1.52,2.44,2.44,0,0,1-1.19.79c-0.61.15-2.57-1.13-2.82-1.72-0.37-.9.53-2.7,1.66-2.09h0Z"/>
    <path class="cls-1" d="M33.24,42.81c0.94,0.32,1.76,1.05,1.35,2a1.6,1.6,0,0,1-2.07,1.09c-1.9-.51-1.4-3.82.72-3.1h0Z"/>
    <path class="cls-1" d="M31.6,46.47c1.5,0.56,3.35,1.48,3.28,2.42a1.79,1.79,0,0,1-.62,1.39c-1.15.83-2.69-.3-3.55-0.95C30.28,48.66,30.59,46.23,31.6,46.47Z"/>
    <path class="cls-1" d="M31.72,51.73a1.71,1.71,0,0,1-1.24,1.79c-0.56,0-.67-0.63-0.65-1.32s0.2-1.62.78-1.72A1.78,1.78,0,0,1,31.72,51.73Z"/>
  </g>
</svg>
