<svg id="レイヤー_1" data-name="レイヤー 1" xmlns="http://www.w3.org/2000/svg" width="80" height="80" viewBox="0 0 80 80">
  <defs>
    <style>
      .cls-1 {
        fill: #e0e0d5;
      }
    </style>
  </defs>
  <title>mark</title>
  <g>
    <path class="cls-1" d="M45.92,33.82a12.73,12.73,0,0,1-.46-3.73c0-1.45,2.11-6.5,3.28-9a16.4,16.4,0,0,0-3.81-.51s-2,7.54-2,8.23,0.58,5.31.58,5.31Z"/>
    <path class="cls-1" d="M44.57,25.87C40.73,19.35,33,12.52,21.44,9.21c8.39,0.05,14.13,4.52,18.45,8a15.32,15.32,0,0,0-8.54-9.3,23.87,23.87,0,0,0-14.28-1.5c-1.89.29-5.13,1.32-7.27,1.88A20.15,20.15,0,0,1,17,11.09c2.13,1.24,4.57,4.94,9.66,7.11,4.11,1.75,8.91,1.68,11.46,1.64a22.61,22.61,0,0,1,6.06,6.67Z"/>
    <path class="cls-1" d="M43.86,32.07c3.25,0,4.85-2.7,10-2.54,5.67,0.18,11.9,2.74,12,15.85S57,66.79,51.77,68.31c-3.4,1-6-.43-7.91-0.43s-3.28,1.47-6.61,1c-4.78-.72-16-7.22-16.37-22.87C20.58,34.3,28.76,29,33.79,29.1,39.13,29.18,41.51,32.07,43.86,32.07Zm-10.09-.68c-7.93,3.33-10.22,11.48-8.85,18.19a9.06,9.06,0,0,0,1.58,3.81c1,1.35,1.34,1.54,1.85.27-0.51-2.34-1.79-6.86-.66-11.73,1.22-5.28,3.56-7.52,7.57-10.46A2.65,2.65,0,0,0,33.77,31.39Z"/>
  </g>
</svg>
