<svg id="レイヤー_1" data-name="レイヤー 1" xmlns="http://www.w3.org/2000/svg" width="80" height="80" viewBox="0 0 80 80">
  <defs>
    <style>
      .cls-1 {
        fill: #658c1a;
      }
    </style>
  </defs>
  <title>mark</title>
  <path class="cls-1" d="M58.15,21.18c1.45-1.22.76-4.36-1.49-4.44,1.68-2.6,0-6.16-2.95-5.43,0.08-1.91-1.22-3.14-3.29-3.17,0.15-2.52-1.8-4.28-4.32-3-0.65-2.41-3.25-2.41-4.67-1.53a1.89,1.89,0,0,0-3.52,0c-1.21-.71-3.71-0.8-3.86,1.87C31.84,4,28.55,5.3,29,8.06c-1.22-.34-3.33.42-2.75,3.29-2.91-.5-4.55,1.57-4.17,5.62-1.42.8-2,2.79-.77,4.7-3.37,1.7-2.7,5.16-.29,6.83-1.66,1-.91,3.79.57,4.65a4.1,4.1,0,0,0-1,5.09c0.73,1.63,2.49,2.61,3.49,3.67-3.47,6.27,6.27,9.83,10,16.26,2.71,4.7,3.14,13,3.44,19.39h4.7c0.46-7.69.34-15.66,3.39-20.14s12.11-10.5,9.93-16.28c5.47-1.61,3.56-7.57,2.6-8.34,2.07-1.26,1.22-3.52.92-4.67C63,25.92,59.88,22.06,58.15,21.18ZM40.89,49.38l0.55,26.68H38.11l0.64-23.6c-4.11-3.1-11.18-11.15-12.36-15.78,2.51,5,8.45,10.9,12.43,13.31l0.32-11.8C35.84,35.87,30,29.77,28.29,25.78A39.84,39.84,0,0,0,39.19,36.18l0.26-9.53c-3.22-2.25-7.58-6.48-9.31-10.45a30.28,30.28,0,0,0,9.35,9L40,6.53,40.32,22a30.42,30.42,0,0,0,9.25-8.94c-1.72,3.94-6,8.12-9.22,10.38L40.55,33A39.91,39.91,0,0,0,51.42,22.65c-1.73,4-7.53,10.06-10.83,12.4L40.83,46.9c4-2.39,10-8.38,12.48-13.35C52.13,38.21,45,46.32,40.89,49.38Z"/>
</svg>
