<svg id="レイヤー_1" data-name="レイヤー 1" xmlns="http://www.w3.org/2000/svg" width="80" height="80" viewBox="0 0 80 80">
  <defs>
    <style>
      .cls-1 {
        fill: #f8d40f;
        fill-rule: evenodd;
      }
    </style>
  </defs>
  <title>mark</title>
  <path class="cls-1" d="M45.9,16.8c-0.31-.16-2,1.39-2.26,1.66a6.24,6.24,0,0,0-1.56,3.29c1.93-1.44,4.73-3.88,7.25-4,2.31-.09,3,3.28,4.91,3-1.31,1.05-1.07,2.28-1.88,3.45-0.7,1-2.3,1-3.54,1.29,0.48,0.56,1.31.29,1.92,0.41a8.37,8.37,0,0,1,2,.88c0.89,0.42,2.73,1.15,3.21-.28a4.22,4.22,0,0,1-2-.82c-1-.76-0.89-0.81-0.48-1.71a3.44,3.44,0,0,1,3.94-1.72c2.24,0.92,4.6,5.73,4.12,7.9a4.64,4.64,0,0,1-1.07,2.21c-1,1-.55.45-1.71,0.5-1.7.06-2.9,0.73-4.6,1s-3-.2-4.32,1.17c-0.88.89-1.27,2.5-2.68,2.76,1.42,1.25,3.55-1.4,4.81-1.86,2-.7,4.18-0.09,6.12-1-1.35,3.14-4.95,4.09-7.9,5.11-3.23,1.11-6.88,1.08-10,2.44a3.07,3.07,0,0,0-.66-2.8c-0.5-.6-2.51-1-2.72-1.44-0.33-.72,2.08-2,2.66-2.41C40.9,35,42.24,35,43.69,34.43A5.66,5.66,0,0,0,41,33.3c-1.36,0-.73.55-1.51,1.1-1,.69-2.32.09-3.32,0.68-1.29.76-.54,1.43-1,2.55-0.78,1.83-3.79.41-5.56,0.89-2.1.56-3.68,2.73-5.94,2.73,1.83,1.24,4,0,5.77-.55,2.24-.73,3.94-0.13,6.21-0.1,1.28,0,3.65-.2,3.36,1.87-0.22,1.63-3,2.17-4.2,2.42a45.52,45.52,0,0,1-13.57.28C19.39,45,17,44.86,16.51,42.73c-0.44-1.8.31-4.12,0.55-5.9,0.81,1.06,2.39.08,3.34,0,1.19-.09,2.26.78,3.42,0.61-0.87-1-1.94-2.08-3.35-2.12-0.7,0-2.44,1-2.91.2s4-2.75,4.35-4.17c0.28-1.2-.36-2.44.12-3.63a4.48,4.48,0,0,1,2.72-2.31,10.05,10.05,0,0,1,8.54.77,9,9,0,0,1-5.14,2.35c0.23,1.32,2.82.37,3.92,0,1.61-.49,2.83-1.49,4.49-1.19,1.4,0.25,2.15,1,3.61.28,0.88-.45,1.7-2,2.92-1.4-0.57-1.58-2.65.17-3.49,0.21-1.6.08-1.67-1.54-2.95-1.9-0.79-.22-1.21.59-1.91,0.59s-1.17-.58-1.76-1a4.88,4.88,0,0,0-4.32-1.06,8.85,8.85,0,0,1,2.45-3.88c1.43-1.06,3.24-.7,4.9-1.05s3-1.35,4.61-2c1.86-.78,3.52-0.19,5.28.63h0ZM15.06,39.22c-0.16,2.1-1.48,5.67.82,7,2,1.18,5.93,1.05,8.16,1.06a81.78,81.78,0,0,0,9.33-.17c3.39-.38,5.69-2.5,8.8-3.48s6-.41,8.94-1.61c2.24-.92,5.38-1.45,7.18-3.13,1-.92,1.17-2.22,2-3.22s1.76-1.36,2.44-2.31a5.71,5.71,0,0,0,1.09-3.66c0-1.65-.83-2.22-1.66-3.6,1.48,0,3.51,2.22,4.44,3.27A6.59,6.59,0,0,1,68.41,34c0.06,3.21-2.84,5.12-5.34,6.49-7.22,4-15.62,7.48-23.75,8.94-7.08,1.27-14.11,2.73-21.39,2.32-2.55-.14-7.19-0.18-7.31-3.44a10.1,10.1,0,0,1,1.63-5.2A42.44,42.44,0,0,1,15.06,39.22ZM68.33,39c3,0,1.08,7.43.7,9-0.92,3.89-2,7.1-4.86,10.21a21.45,21.45,0,0,1-4.72,4c-1.42.84-3.23,0.87-4.84,1.33-1.83.53-3.29-.19-5.05-0.5C48.92,63,44,62,44,63c2.58,0,4.26,2.13,6.64,2,0.6,0,2.3-.6,2.76.29,0.3,0.59-2.49,1.44-3,1.65-2.52,1-5.47,1.06-8.13,1.42A42.06,42.06,0,0,1,31,68.14,24.53,24.53,0,0,1,17.53,62c-0.62-.55-2.26-1.48-1.6-2.13s2.44,0.07,3.17.21a4.64,4.64,0,0,0,3.41-.41,31.26,31.26,0,0,0,3.73-2.43c-1.92-1-2.75.85-4.29,1.38s-2.89-.55-4.44-0.6c-0.84,0-1.72.42-2.56,0.18A8.39,8.39,0,0,1,13.4,57c-1.13-.73-2.4-1.21-3.06-2.48-0.39-.75-0.53-1.2.08-1.81s0.81-.19,1.68-0.06c1.49,0.23,2.94.62,4.46,0.78a43.56,43.56,0,0,0,10.17-.23A128,128,0,0,0,50,48.5a65.77,65.77,0,0,0,10.23-4.17A92.49,92.49,0,0,0,68.33,39C68.56,39,68.08,39.28,68.33,39ZM39.65,56.17c1.27-1.56,4.13-1.23,5.82-1,3.37,0.38,4.61-.89,7.38-2.5,4.1-2.39,9.62-2.51,12.94-6.16-0.2,5.78-9.31,4.41-12.08,8,1.86,0.72,4.66.57,6.64,0.3C58.61,56,55.61,56,53.66,56.32c-2.12.33-2.31,2.38-5.75,2.69a19.76,19.76,0,0,0,2.38-2.89C49.44,56.11,41.86,57,39.65,56.17Zm-5.37,5.76A6.5,6.5,0,0,1,39,61.66s-5.05,2.41-6.8,2.76c-1.43.29-2.87-.39-4.23-0.79-0.79-.23-3.32-0.25-3.83-0.77,1.33-.55,1.88-0.29,3.33-0.29a18.19,18.19,0,0,1-.58-2.31c0.88,0.53,2.35,2.53,3.38,2.69C32,63.22,32.89,62.62,34.28,61.93Z"/>
</svg>
