<svg id="レイヤー_1" data-name="レイヤー 1" xmlns="http://www.w3.org/2000/svg" width="80" height="80" viewBox="0 0 80 80">
  <defs>
    <style>
      .cls-1 {
        fill: #e0e0d5;
      }
    </style>
  </defs>
  <title>mark</title>
  <g>
    <path class="cls-1" d="M25,5.95l6,1.41V8.77a3,3,0,0,0-1,1.41v2.12l-1,1.27L27.34,13s-0.88,4.94-.6,6.25l3.21,2.28c0.66,2.89,5.8,12.74,13.71,17.27,7.34,4.21,13.72,7.14,24.83,7,2.5,0,7,1.25,7.93,2.75,0.3,2-.36,3.65-2.74,5.61-4.18,1.92-10.83,2.73-21.29,1.41-11.33-1.43-22.08-7.91-25.9-13.34C22.34,36.4,20.91,29.74,22.16,21l1.53-1.55c0.32-2.53.95-6.34,0.95-7-0.56-.11-3.73-0.8-3.73-0.8V9.75s1.67-.47,1.67-1.22S24.24,6.47,25,5.95ZM58.31,47.6C48,46,33.34,36.65,28.62,23.92,29.57,37.84,48.81,47.53,58.31,47.6Z"/>
    <path class="cls-1" d="M24.63,12.43s-4.88,4.36-5.32,5.63l1.56,3.64c-0.92,2.82-2.08,13,2.34,21.09,4.1,7.48,7.94,13.17,17.46,19,2.14,1.31,5.48,3.66,6.53,7.19A5.61,5.61,0,0,1,41,71.85c-4.55-.58-11.25-3.6-19.37-10.79C13,53.45,8.09,43.41,7.62,36.75c-0.5-7.2.62-13.71,6-19.59,0.76-.19,3-0.56,3-0.56,1.56-1.57,3.77-3.6,5.05-4.8ZM22.55,56.91c-0.77-2.67-5.77-8.32-8.27-15.72-1.83-5.41-3.62-12.53.06-20,0.31-.75,1.85-2.41.85-2.41C4.22,31.11,16,52.33,22.55,56.91Z"/>
  </g>
</svg>
