<svg id="レイヤー_1" data-name="レイヤー 1" xmlns="http://www.w3.org/2000/svg" width="80" height="80" viewBox="0 0 80 80">
  <defs>
    <style>
      .cls-1 {
        fill: #f8d40f;
      }
    </style>
  </defs>
  <title>mark</title>
  <g>
    <path class="cls-1" d="M71.87,45.65c0-9.74-2.78-19.27-13.67-21.93C51.87,18.35,44,21.55,44,21.55H42.84s2.89,7.89.14,14.82c0,0-.65-10.93-2.35-14.82,0,0-5.91-3.37-11.15,0-10-3.83-19.62,10.79-19.62,24.1s10.47,24.1,23.4,24.1A41,41,0,0,1,25.6,59.29a41.63,41.63,0,0,1-3.66-12.56,33.46,33.46,0,0,1,1-13.08A33,33,0,0,1,29.49,21.9a44.2,44.2,0,0,0-4.31,11.87,39.28,39.28,0,0,0-.44,12.38,52.14,52.14,0,0,0,3,12.13,71.23,71.23,0,0,0,5.51,11.47h5.62c3.41-2.21,4-7.94,4-7.94a11.78,11.78,0,0,1-.06,7.94h5.67a18.18,18.18,0,0,0,7.37-1.58c1.18-.44,2.21-2.64,2.77-3.73a23,23,0,0,0,1.78-6,9.7,9.7,0,0,1,.07,7.47c-0.13.25-1.6,1.75-1.76,2C65.79,63.75,71.87,54.65,71.87,45.65ZM61,36.37a21.27,21.27,0,0,0-.4-6.42,22.07,22.07,0,0,0-2.6-5.9,8,8,0,0,1,4.46,5.44A7.82,7.82,0,0,1,61,36.37Z"/>
    <path class="cls-1" d="M42.6,10.75a8.11,8.11,0,0,0-5.38-4L36.64,9a5.79,5.79,0,0,1,3.9,2.85c2,3.72.11,9.64,0.09,9.7h2.22C42.94,21.27,45.12,15.37,42.6,10.75Z"/>
  </g>
</svg>
